<?xml version="1.0" encoding="utf-8"?>
<!-- Generator: Adobe Illustrator 27.0.0, SVG Export Plug-In . SVG Version: 6.00 Build 0)  -->
<svg version="1.1" id="レイヤー_1" xmlns="http://www.w3.org/2000/svg" xmlns:xlink="http://www.w3.org/1999/xlink" x="0px"
	 y="0px" viewBox="0 0 500 500" style="enable-background:new 0 0 500 500;" xml:space="preserve">
<style type="text/css">
	.st0{fill:#489525;}
</style>
<path class="st0" d="M423.69,10.14c-0.05-0.01-0.11-0.03-0.16-0.04c-0.9-0.22-1.8-0.43-2.7-0.63c-0.13-0.03-0.27-0.06-0.4-0.09
	c-1.9-0.41-3.83-0.75-5.77-1.03c-0.22-0.03-0.44-0.06-0.66-0.09c-0.81-0.11-1.62-0.21-2.44-0.3c-0.17-0.02-0.33-0.04-0.49-0.06
	c-0.95-0.1-1.91-0.19-2.87-0.26c-0.21-0.02-0.43-0.03-0.64-0.04c-0.77-0.05-1.54-0.09-2.31-0.12c-0.27-0.01-0.54-0.02-0.81-0.03
	c-0.97-0.03-1.94-0.05-2.91-0.05H208.09H98.48c-40.3,0-74.69,26.52-86.62,62.97c0,0.01-0.01,0.02-0.01,0.03
	c-0.63,1.94-1.21,3.91-1.71,5.91c-0.02,0.07-0.03,0.13-0.05,0.2c-0.22,0.88-0.43,1.77-0.62,2.66c-0.03,0.14-0.06,0.29-0.09,0.43
	c-0.4,1.9-0.75,3.81-1.03,5.75c-0.03,0.23-0.06,0.45-0.1,0.68c-0.11,0.8-0.21,1.61-0.3,2.41c-0.02,0.17-0.04,0.34-0.06,0.51
	c-0.1,0.95-0.19,1.91-0.26,2.87c-0.02,0.22-0.03,0.43-0.04,0.65C7.54,93.23,7.5,94,7.47,94.77c-0.01,0.27-0.02,0.54-0.03,0.81
	c-0.03,0.97-0.05,1.93-0.05,2.91l0,0l0,0v303.04l0,0c0,46.97,36.03,85.93,81.81,90.62c3.05,0.31,6.15,0.47,9.28,0.47h303.04
	c3.13,0,6.23-0.16,9.28-0.47c45.79-4.69,81.81-43.65,81.81-90.62l0,0V208.09V98.48C492.61,56.02,463.17,20.11,423.69,10.14z"/>
</svg>
