<?xml version="1.0" encoding="utf-8"?>
<!-- Generator: Adobe Illustrator 27.0.0, SVG Export Plug-In . SVG Version: 6.00 Build 0)  -->
<svg version="1.1" id="レイヤー_1" xmlns="http://www.w3.org/2000/svg" xmlns:xlink="http://www.w3.org/1999/xlink" x="0px"
	 y="0px" viewBox="0 0 500 500" style="enable-background:new 0 0 500 500;" xml:space="preserve">
<style type="text/css">
	.st0{fill:#FFFFFF;}
</style>
<path class="st0" d="M479.12,219.61L282.59,387.24c-0.03-0.02-0.07-0.06-0.1-0.08l-7.71,6.56c-11.65-13.06-23.9-26.58-36.73-40.58
	c-12.81-13.99-25.41-27.63-37.78-40.92c-12.35-13.29-24.25-26-35.68-38.12c-11.42-12.13-21.32-22.63-29.73-31.48
	c0-10.27,1.88-19.36,5.6-27.29c3.74-7.93,8.74-14.69,15.04-20.28c6.3-5.6,13.41-9.8,21.34-12.59c7.94-2.8,16.33-4.2,25.18-4.2
	c19.13,0,34.75,4.79,46.88,14.33c11.89,9.37,23.31,20.47,34.3,33.21L482.07,56.18c-15.3-28.94-45.7-48.79-80.55-48.79H98.48
	c-50.1,0-91.09,40.99-91.09,91.09v303.04c0,50.1,40.99,91.09,91.09,91.09h303.04c50.1,0,91.09-40.99,91.09-91.09V208.09
	L479.12,219.61z"/>
</svg>
