<?xml version="1.0" encoding="utf-8"?>
<!-- Generator: Adobe Illustrator 27.0.0, SVG Export Plug-In . SVG Version: 6.00 Build 0)  -->
<svg version="1.1" id="レイヤー_1" xmlns="http://www.w3.org/2000/svg" xmlns:xlink="http://www.w3.org/1999/xlink" x="0px"
	 y="0px" viewBox="0 0 500 500" style="enable-background:new 0 0 500 500;" xml:space="preserve">
<style type="text/css">
	.st0{fill-rule:evenodd;clip-rule:evenodd;fill:#FFFFFF;}
</style>
<path class="st0" d="M172.39,122.02c13.29-8.1,27.75-14.09,42.74-17.79c8.8-2.09,15.35-9.99,15.35-19.38V51.28
	c6.47-0.7,12.72-1,19.42-1c6.7,0,12.95,0.3,19.42,1v33.57c0,9.39,7.02,17.29,15.82,19.38c15,3.7,29.65,9.69,42.95,17.78
	c3.2,2,7.03,3,10.63,3c5.1,0,10.26-2,14.16-5.89l23.93-23.78c10.4,8.49,19.81,17.88,28.3,28.27l-23.78,23.88
	c-3.9,3.9-5.8,8.89-5.8,13.99c0,3.7,0.9,7.39,2.9,10.59c8.1,13.29,14.1,27.87,17.79,42.95c2.1,8.79,10.01,15.57,19.4,15.57h33.59
	c0.7,6.47,1.1,12.62,1.1,19.41c0,6.79-0.4,12.94-1.1,19.41h-33.59c-9.39,0-17.29,6.78-19.39,15.57c-3.7,15.09-9.7,29.52-17.8,42.8
	c-4.7,7.8-3.8,18.06,2.9,24.65l23.8,23.91c-8.5,10.39-17.89,19.8-28.3,28.29l-23.89-23.77c-3.9-3.9-8.9-5.79-14-5.79
	c-3.7,0-7.4,0.9-10.59,2.9c-13.3,8.09-28.22,14.09-43.21,17.79c-8.8,2.1-15.82,9.99-15.82,19.38v33.57c-6.47,0.7-12.72,1-19.42,1
	c-6.7,0-12.94-0.3-19.42-1v-33.57c0-9.39-6.55-17.28-15.35-19.38c-15-3.7-29.42-9.7-42.72-17.79c-3.2-2-6.91-2.9-10.61-2.9
	c-5.1,0-10.11,1.9-14,5.8l-23.9,23.78c-10.4-8.49-19.8-17.88-28.29-28.27l23.79-23.88c6.7-6.59,7.6-16.78,2.9-24.58
	c-8.1-13.29-14.09-27.87-17.8-42.95c-2.1-8.79-10-15.57-19.4-15.57H51.52c-0.7-6.47-1.1-12.61-1.1-19.41c0-6.79,0.4-12.94,1.1-19.41
	h33.59c9.4,0,17.3-6.78,19.4-15.57c3.7-15.08,9.7-29.51,17.8-42.8c2-3.2,2.9-6.97,2.9-10.66c0-5.1-1.9-10.13-5.8-14.03l-23.8-23.9
	c8.5-10.39,17.9-19.79,28.3-28.28l23.89,23.78c3.9,3.89,9,5.89,14.1,5.89C165.49,125.02,169.19,124.02,172.39,122.02z M190.39,250
	c0-33.07,26.89-59.94,59.98-59.94c33.09,0,59.99,26.88,59.99,59.94c0,33.07-26.9,59.94-59.99,59.94
	C217.28,309.94,190.39,283.07,190.39,250z M150.4,250c0,55.05,44.89,99.91,99.97,99.91c55.09,0,99.98-44.86,99.98-99.91
	c0-55.05-44.89-99.91-99.98-99.91C195.29,150.09,150.4,194.95,150.4,250z M206.23,14.31c-9.3,1.7-16.74,9.79-16.74,19.58v35.97
	c-8.63,2.9-16.45,6.29-24.55,10.39l-25.37-25.48c0-0.1,0.12-0.1,0.02-0.1c-6.7-6.59-17.24-7.79-25.34-2.2
	c-24.19,16.68-44.86,37.37-61.56,61.54c-5.6,8.09-4.38,18.68,2.21,25.38c0,0.1,0,0.1,0.11,0.1l25.5,25.36
	c-4.1,8.1-7.5,16.14-10.4,24.76H34.13c-9.4,0-17.8,6.81-19.59,16.4c-2.7,13.99-4.1,28.88-4.1,43.87c0,14.98,1.4,30.04,4.1,44.03
	c1.8,9.49,10.19,16.45,19.59,16.45h35.99c2.9,8.63,6.3,16.67,10.4,24.76l-25.5,25.47c-3.8,3.8-5.9,8.84-5.9,14.13
	c0,3.9,1.2,7.77,3.6,11.26c16.7,24.18,37.39,44.85,61.59,61.53c3.5,2.4,7.53,3.59,11.43,3.59c5.2,0,9.81-2.1,14.13-6v0.1
	l25.11-25.48c8.1,4.1,15.88,7.49,24.52,10.39v35.97c0,9.39,7.05,17.79,16.64,19.58c14,2.7,29.02,4.1,44.01,4.1
	c15,0,29.89-1.4,43.89-4.1c9.6-1.8,16.29-10.19,16.29-19.58v-35.97c8.63-2.9,16.42-6.29,24.51-10.39l25.12,25.48v-0.1
	c4.32,3.9,9.39,5.99,14.59,5.99c3.9,0,8.15-1.2,11.65-3.59c24.2-16.68,45.02-37.37,61.71-61.54c2.4-3.5,3.66-7.39,3.66-11.29
	c0-5.3-2.06-10.39-5.87-14.19l-25.48-25.37c4.1-8.09,7.52-16.14,10.41-24.76h35.99c9.4,0,17.8-6.91,19.6-16.4
	c2.7-13.99,4.1-28.99,4.1-43.98c0-14.99-1.4-29.99-4.1-43.97c-1.8-9.59-10.2-16.4-19.6-16.4h-35.99c-2.9-8.63-6.3-16.66-10.4-24.76
	l25.49-25.47c0.1,0,0.1,0.05,0.1-0.05c6.6-6.69,7.8-17.26,2.2-25.35c-16.7-24.18-37.39-44.85-61.59-61.53
	c-8.1-5.59-18.7-4.39-25.4,2.21c-0.1,0-0.1,0-0.1,0.1l-25.61,25.48c-8.11-4.1-16.38-7.49-25.02-10.39V33.9
	c0-9.79-6.98-17.88-16.27-19.58c-14-2.7-28.79-4.1-43.69-4.1C235.47,10.22,220.23,11.62,206.23,14.31z"/>
</svg>
