<?xml version="1.0" encoding="utf-8"?>
<!-- Generator: Adobe Illustrator 27.0.0, SVG Export Plug-In . SVG Version: 6.00 Build 0)  -->
<svg version="1.1" id="レイヤー_1" xmlns="http://www.w3.org/2000/svg" xmlns:xlink="http://www.w3.org/1999/xlink" x="0px"
	 y="0px" viewBox="0 0 500 500" style="enable-background:new 0 0 500 500;" xml:space="preserve">
<style type="text/css">
	.st0{fill:#FFFFFF;}
</style>
<path class="st0" d="M472.88,220.43L281.7,383.5c-0.03-0.02-0.07-0.05-0.09-0.07l-7.5,6.38c-11.33-12.71-23.25-25.86-35.73-39.47
	c-12.47-13.61-24.72-26.88-36.75-39.81c-12.01-12.93-23.59-25.29-34.71-37.09c-11.11-11.8-20.74-22.01-28.92-30.62
	c0-9.99,1.83-18.83,5.45-26.55c3.64-7.72,8.5-14.29,14.63-19.73c6.13-5.45,13.05-9.53,20.76-12.25c7.73-2.72,15.89-4.08,24.49-4.08
	c18.61,0,33.8,4.66,45.61,13.94c11.57,9.11,22.68,19.92,33.36,32.31L475.76,61.45C460.87,33.3,431.3,13.99,397.4,13.99H102.6
	c-48.74,0-88.61,39.88-88.61,88.61v294.8c0,48.74,39.88,88.61,88.61,88.61h294.8c48.74,0,88.61-39.88,88.61-88.61V209.23
	L472.88,220.43z"/>
</svg>
