<?xml version="1.0" encoding="utf-8"?>
<!-- Generator: Adobe Illustrator 27.0.0, SVG Export Plug-In . SVG Version: 6.00 Build 0)  -->
<svg version="1.1" id="レイヤー_1" xmlns="http://www.w3.org/2000/svg" xmlns:xlink="http://www.w3.org/1999/xlink" x="0px"
	 y="0px" viewBox="0 0 500 500" style="enable-background:new 0 0 500 500;" xml:space="preserve">
<style type="text/css">
	.st0{fill:#FFFFFF;}
</style>
<g>
	<path class="st0" d="M250.42,257.98l235.59-92.49v-23.63c0-30.3-21.01-55.93-49.18-63.04c-0.04-0.01-0.08-0.02-0.12-0.03
		c-0.64-0.16-1.28-0.31-1.93-0.45c-0.1-0.02-0.19-0.04-0.29-0.06c-1.36-0.29-2.73-0.53-4.11-0.74c-0.16-0.02-0.32-0.04-0.47-0.07
		c-0.58-0.08-1.16-0.15-1.74-0.22c-0.12-0.01-0.23-0.03-0.35-0.04c-0.68-0.07-1.37-0.13-2.05-0.18c-0.15-0.01-0.31-0.02-0.46-0.03
		c-0.55-0.04-1.1-0.07-1.65-0.09c-0.19-0.01-0.38-0.02-0.58-0.02c-0.69-0.02-1.38-0.04-2.08-0.04H157.22H78.99
		c-28.76,0-53.3,18.93-61.81,44.93c0,0.01-0.01,0.02-0.01,0.02c-0.45,1.39-0.86,2.79-1.22,4.22c-0.01,0.05-0.02,0.1-0.04,0.14
		c-0.16,0.63-0.3,1.26-0.44,1.9c-0.02,0.1-0.04,0.2-0.07,0.31c-0.29,1.35-0.53,2.72-0.73,4.1c-0.03,0.16-0.05,0.32-0.07,0.49
		c-0.08,0.57-0.15,1.14-0.21,1.72c-0.01,0.12-0.03,0.24-0.04,0.37c-0.07,0.68-0.13,1.36-0.18,2.05c-0.01,0.15-0.02,0.31-0.03,0.46
		c-0.04,0.54-0.07,1.09-0.09,1.64c-0.01,0.19-0.02,0.39-0.02,0.58c-0.02,0.69-0.04,1.38-0.04,2.07c0,0,0,0,0,0v0v16.19
		L250.42,257.98z"/>
	<path class="st0" d="M249.56,325.86L13.99,226.31v131.81v0c0,33.52,25.71,61.32,58.38,64.67c2.18,0.22,4.39,0.34,6.62,0.34h342.01
		c2.23,0,4.44-0.12,6.62-0.34c32.67-3.35,58.38-31.15,58.38-64.67v0V233.04L249.56,325.86z"/>
</g>
</svg>
