<?xml version="1.0" encoding="utf-8"?>
<!-- Generator: Adobe Illustrator 27.0.0, SVG Export Plug-In . SVG Version: 6.00 Build 0)  -->
<svg version="1.1" id="レイヤー_1" xmlns="http://www.w3.org/2000/svg" xmlns:xlink="http://www.w3.org/1999/xlink" x="0px"
	 y="0px" viewBox="0 0 500 500" style="enable-background:new 0 0 500 500;" xml:space="preserve">
<style type="text/css">
	.st0{fill:#FFFFFF;}
</style>
<g>
	<path class="st0" d="M456.15,276.95c-0.02-0.01-0.05-0.01-0.07-0.02c-0.39-0.1-0.78-0.19-1.17-0.27c-0.06-0.01-0.11-0.03-0.17-0.04
		c-0.82-0.18-1.66-0.33-2.5-0.45c-0.1-0.01-0.19-0.03-0.29-0.04c-0.35-0.05-0.7-0.09-1.06-0.13c-0.07-0.01-0.14-0.02-0.21-0.02
		c-0.41-0.04-0.83-0.08-1.25-0.11c-0.09-0.01-0.18-0.01-0.28-0.02c-0.33-0.02-0.67-0.04-1-0.05c-0.12,0-0.23-0.01-0.35-0.01
		c-0.42-0.01-0.84-0.02-1.26-0.02h-83.82h-47.5c-17.46,0-32.37,11.49-37.53,27.28c0,0,0,0.01,0,0.01c-0.28,0.84-0.52,1.7-0.74,2.56
		c-0.01,0.03-0.01,0.06-0.02,0.09c-0.1,0.38-0.19,0.77-0.27,1.15c-0.01,0.06-0.03,0.12-0.04,0.19c-0.18,0.82-0.32,1.65-0.45,2.49
		c-0.01,0.1-0.03,0.2-0.04,0.3c-0.05,0.35-0.09,0.7-0.13,1.05c-0.01,0.07-0.02,0.15-0.03,0.22c-0.04,0.41-0.08,0.83-0.11,1.24
		c-0.01,0.09-0.01,0.19-0.02,0.28c-0.02,0.33-0.04,0.66-0.05,1c0,0.12-0.01,0.23-0.01,0.35c-0.01,0.42-0.02,0.84-0.02,1.26
		c0,0,0,0,0,0v0v131.31v0c0,20.35,15.61,37.24,35.45,39.27c1.32,0.14,2.66,0.2,4.02,0.2h131.31c1.36,0,2.7-0.07,4.02-0.2
		c19.84-2.03,35.45-18.91,35.45-39.27v0v-83.81v-47.5C486.01,296.83,473.25,281.27,456.15,276.95z"/>
	<path class="st0" d="M194.38,276.95c-0.02-0.01-0.05-0.01-0.07-0.02c-0.39-0.1-0.78-0.19-1.17-0.27c-0.06-0.01-0.11-0.03-0.17-0.04
		c-0.82-0.18-1.66-0.33-2.5-0.45c-0.1-0.01-0.19-0.03-0.29-0.04c-0.35-0.05-0.7-0.09-1.06-0.13c-0.07-0.01-0.14-0.02-0.21-0.02
		c-0.41-0.04-0.83-0.08-1.25-0.11c-0.09-0.01-0.18-0.01-0.28-0.02c-0.33-0.02-0.67-0.04-1-0.05c-0.12,0-0.23-0.01-0.35-0.01
		c-0.42-0.01-0.84-0.02-1.26-0.02h-83.82h-47.5c-17.46,0-32.37,11.49-37.53,27.28c0,0,0,0.01,0,0.01c-0.28,0.84-0.52,1.7-0.74,2.56
		c-0.01,0.03-0.01,0.06-0.02,0.09c-0.1,0.38-0.19,0.77-0.27,1.15c-0.01,0.06-0.03,0.12-0.04,0.19c-0.18,0.82-0.32,1.65-0.45,2.49
		c-0.01,0.1-0.03,0.2-0.04,0.3c-0.05,0.35-0.09,0.7-0.13,1.05c-0.01,0.07-0.02,0.15-0.03,0.22c-0.04,0.41-0.08,0.83-0.11,1.24
		c-0.01,0.09-0.01,0.19-0.02,0.28c-0.02,0.33-0.04,0.66-0.05,1c0,0.12-0.01,0.23-0.01,0.35c-0.01,0.42-0.02,0.84-0.02,1.26
		c0,0,0,0,0,0v0v131.31v0c0,20.35,15.61,37.24,35.45,39.27c1.32,0.14,2.66,0.2,4.02,0.2h131.31c1.36,0,2.7-0.07,4.02-0.2
		c19.84-2.03,35.45-18.91,35.45-39.27v0v-83.81v-47.5C224.25,296.83,211.49,281.27,194.38,276.95z"/>
	<path class="st0" d="M456.15,15.18c-0.02-0.01-0.05-0.01-0.07-0.02c-0.39-0.1-0.78-0.19-1.17-0.27c-0.06-0.01-0.11-0.03-0.17-0.04
		c-0.82-0.18-1.66-0.33-2.5-0.45c-0.1-0.01-0.19-0.03-0.29-0.04c-0.35-0.05-0.7-0.09-1.06-0.13c-0.07-0.01-0.14-0.02-0.21-0.02
		c-0.41-0.04-0.83-0.08-1.25-0.11c-0.09-0.01-0.18-0.01-0.28-0.02c-0.33-0.02-0.67-0.04-1-0.05c-0.12,0-0.23-0.01-0.35-0.01
		c-0.42-0.01-0.84-0.02-1.26-0.02h-83.82h-47.5c-17.46,0-32.37,11.49-37.53,27.28c0,0,0,0.01,0,0.01c-0.28,0.84-0.52,1.7-0.74,2.56
		c-0.01,0.03-0.01,0.06-0.02,0.09c-0.1,0.38-0.19,0.77-0.27,1.15c-0.01,0.06-0.03,0.12-0.04,0.19c-0.18,0.82-0.32,1.65-0.45,2.49
		c-0.01,0.1-0.03,0.2-0.04,0.3c-0.05,0.35-0.09,0.7-0.13,1.05c-0.01,0.07-0.02,0.15-0.03,0.22c-0.04,0.41-0.08,0.83-0.11,1.24
		c-0.01,0.09-0.01,0.19-0.02,0.28c-0.02,0.33-0.04,0.66-0.05,1c0,0.12-0.01,0.23-0.01,0.35c-0.01,0.42-0.02,0.84-0.02,1.26
		c0,0,0,0,0,0v0v131.31v0c0,20.35,15.61,37.24,35.45,39.27c1.32,0.14,2.66,0.2,4.02,0.2h131.31c1.36,0,2.7-0.07,4.02-0.2
		c19.84-2.03,35.45-18.91,35.45-39.27v0v-83.81v-47.5C486.01,35.06,473.25,19.5,456.15,15.18z"/>
	<path class="st0" d="M194.38,15.18c-0.02-0.01-0.05-0.01-0.07-0.02c-0.39-0.1-0.78-0.19-1.17-0.27c-0.06-0.01-0.11-0.03-0.17-0.04
		c-0.82-0.18-1.66-0.33-2.5-0.45c-0.1-0.01-0.19-0.03-0.29-0.04c-0.35-0.05-0.7-0.09-1.06-0.13c-0.07-0.01-0.14-0.02-0.21-0.02
		c-0.41-0.04-0.83-0.08-1.25-0.11c-0.09-0.01-0.18-0.01-0.28-0.02c-0.33-0.02-0.67-0.04-1-0.05c-0.12,0-0.23-0.01-0.35-0.01
		c-0.42-0.01-0.84-0.02-1.26-0.02h-83.82h-47.5c-17.46,0-32.37,11.49-37.53,27.28c0,0,0,0.01,0,0.01c-0.28,0.84-0.52,1.7-0.74,2.56
		c-0.01,0.03-0.01,0.06-0.02,0.09c-0.1,0.38-0.19,0.77-0.27,1.15c-0.01,0.06-0.03,0.12-0.04,0.19c-0.18,0.82-0.32,1.65-0.45,2.49
		c-0.01,0.1-0.03,0.2-0.04,0.3c-0.05,0.35-0.09,0.7-0.13,1.05c-0.01,0.07-0.02,0.15-0.03,0.22c-0.04,0.41-0.08,0.83-0.11,1.24
		c-0.01,0.09-0.01,0.19-0.02,0.28c-0.02,0.33-0.04,0.66-0.05,1c0,0.12-0.01,0.23-0.01,0.35c-0.01,0.42-0.02,0.84-0.02,1.26
		c0,0,0,0,0,0v0v131.31v0c0,20.35,15.61,37.24,35.45,39.27c1.32,0.14,2.66,0.2,4.02,0.2h131.31c1.36,0,2.7-0.07,4.02-0.2
		c19.84-2.03,35.45-18.91,35.45-39.27v0v-83.81v-47.5C224.25,35.06,211.49,19.5,194.38,15.18z"/>
</g>
</svg>
