<?xml version="1.0" encoding="utf-8"?>
<!-- Generator: Adobe Illustrator 27.0.0, SVG Export Plug-In . SVG Version: 6.00 Build 0)  -->
<svg version="1.1" id="レイヤー_1" xmlns="http://www.w3.org/2000/svg" xmlns:xlink="http://www.w3.org/1999/xlink" x="0px"
	 y="0px" viewBox="0 0 500 500" style="enable-background:new 0 0 500 500;" xml:space="preserve">
<style type="text/css">
	.st0{fill:#FFFFFF;}
</style>
<g>
	<rect x="460.37" y="14.88" class="st0" width="24.75" height="24.75"/>
	<rect x="435.62" y="14.88" class="st0" width="24.75" height="24.75"/>
	<rect x="410.87" y="14.88" class="st0" width="24.75" height="24.75"/>
	<rect x="386.12" y="14.88" class="st0" width="24.75" height="24.75"/>
	<rect x="361.37" y="14.88" class="st0" width="24.75" height="24.75"/>
	<rect x="336.62" y="14.88" class="st0" width="24.75" height="24.75"/>
	<rect x="311.87" y="14.88" class="st0" width="24.75" height="24.75"/>
	<rect x="262.37" y="14.88" class="st0" width="24.75" height="24.75"/>
	<rect x="237.63" y="14.88" class="st0" width="24.75" height="24.75"/>
	<rect x="188.13" y="14.88" class="st0" width="24.75" height="24.75"/>
	<rect x="163.38" y="14.88" class="st0" width="24.75" height="24.75"/>
	<rect x="138.63" y="14.88" class="st0" width="24.75" height="24.75"/>
	<rect x="113.88" y="14.88" class="st0" width="24.75" height="24.75"/>
	<rect x="89.13" y="14.88" class="st0" width="24.75" height="24.75"/>
	<rect x="14.88" y="14.88" class="st0" width="24.75" height="24.75"/>
	<rect x="460.37" y="39.63" class="st0" width="24.75" height="24.75"/>
	<rect x="311.87" y="39.63" class="st0" width="24.75" height="24.75"/>
	<rect x="188.13" y="39.63" class="st0" width="24.75" height="24.75"/>
	<rect x="138.63" y="39.63" class="st0" width="24.75" height="24.75"/>
	<rect x="64.38" y="39.63" class="st0" width="24.75" height="24.75"/>
	<rect x="39.63" y="39.63" class="st0" width="24.75" height="24.75"/>
	<rect x="14.88" y="39.63" class="st0" width="24.75" height="24.75"/>
	<rect x="460.37" y="64.38" class="st0" width="24.75" height="24.75"/>
	<rect x="410.87" y="64.38" class="st0" width="24.75" height="24.75"/>
	<rect x="386.12" y="64.38" class="st0" width="24.75" height="24.75"/>
	<rect x="361.37" y="64.38" class="st0" width="24.75" height="24.75"/>
	<rect x="311.87" y="64.38" class="st0" width="24.75" height="24.75"/>
	<rect x="262.37" y="64.38" class="st0" width="24.75" height="24.75"/>
	<rect x="237.63" y="64.38" class="st0" width="24.75" height="24.75"/>
	<rect x="188.13" y="64.38" class="st0" width="24.75" height="24.75"/>
	<rect x="163.38" y="64.38" class="st0" width="24.75" height="24.75"/>
	<rect x="113.88" y="64.38" class="st0" width="24.75" height="24.75"/>
	<rect x="64.38" y="64.38" class="st0" width="24.75" height="24.75"/>
	<rect x="14.88" y="64.38" class="st0" width="24.75" height="24.75"/>
	<rect x="460.37" y="89.13" class="st0" width="24.75" height="24.75"/>
	<rect x="410.87" y="89.13" class="st0" width="24.75" height="24.75"/>
	<rect x="386.12" y="89.13" class="st0" width="24.75" height="24.75"/>
	<rect x="361.37" y="89.13" class="st0" width="24.75" height="24.75"/>
	<rect x="311.87" y="89.13" class="st0" width="24.75" height="24.75"/>
	<rect x="262.37" y="89.13" class="st0" width="24.75" height="24.75"/>
	<rect x="212.88" y="89.13" class="st0" width="24.75" height="24.75"/>
	<rect x="113.88" y="89.13" class="st0" width="24.75" height="24.75"/>
	<rect x="89.13" y="89.13" class="st0" width="24.75" height="24.75"/>
	<rect x="460.37" y="113.88" class="st0" width="24.75" height="24.75"/>
	<rect x="410.87" y="113.88" class="st0" width="24.75" height="24.75"/>
	<rect x="386.12" y="113.88" class="st0" width="24.75" height="24.75"/>
	<rect x="361.37" y="113.88" class="st0" width="24.75" height="24.75"/>
	<rect x="311.87" y="113.88" class="st0" width="24.75" height="24.75"/>
	<rect x="237.63" y="113.88" class="st0" width="24.75" height="24.75"/>
	<rect x="212.88" y="113.88" class="st0" width="24.75" height="24.75"/>
	<rect x="163.38" y="113.88" class="st0" width="24.75" height="24.75"/>
	<rect x="138.63" y="113.88" class="st0" width="24.75" height="24.75"/>
	<rect x="64.38" y="113.88" class="st0" width="24.75" height="24.75"/>
	<rect x="39.63" y="113.88" class="st0" width="24.75" height="24.75"/>
	<rect x="14.88" y="113.88" class="st0" width="24.75" height="24.75"/>
	<rect x="460.37" y="138.63" class="st0" width="24.75" height="24.75"/>
	<rect x="311.87" y="138.63" class="st0" width="24.75" height="24.75"/>
	<rect x="237.63" y="138.63" class="st0" width="24.75" height="24.75"/>
	<rect x="188.13" y="138.63" class="st0" width="24.75" height="24.75"/>
	<rect x="138.63" y="138.63" class="st0" width="24.75" height="24.75"/>
	<rect x="113.88" y="138.63" class="st0" width="24.75" height="24.75"/>
	<rect x="64.38" y="138.63" class="st0" width="24.75" height="24.75"/>
	<rect x="460.37" y="163.38" class="st0" width="24.75" height="24.75"/>
	<rect x="435.62" y="163.38" class="st0" width="24.75" height="24.75"/>
	<rect x="410.87" y="163.38" class="st0" width="24.75" height="24.75"/>
	<rect x="386.12" y="163.38" class="st0" width="24.75" height="24.75"/>
	<rect x="361.37" y="163.38" class="st0" width="24.75" height="24.75"/>
	<rect x="336.62" y="163.38" class="st0" width="24.75" height="24.75"/>
	<rect x="311.87" y="163.38" class="st0" width="24.75" height="24.75"/>
	<rect x="262.37" y="163.38" class="st0" width="24.75" height="24.75"/>
	<rect x="39.63" y="163.38" class="st0" width="24.75" height="24.75"/>
	<rect x="14.88" y="163.38" class="st0" width="24.75" height="24.75"/>
	<rect x="262.37" y="188.13" class="st0" width="24.75" height="24.75"/>
	<rect x="237.63" y="188.13" class="st0" width="24.75" height="24.75"/>
	<rect x="212.88" y="188.13" class="st0" width="24.75" height="24.75"/>
	<rect x="188.13" y="188.13" class="st0" width="24.75" height="24.75"/>
	<rect x="138.63" y="188.13" class="st0" width="24.75" height="24.75"/>
	<rect x="89.13" y="188.13" class="st0" width="24.75" height="24.75"/>
	<rect x="64.38" y="188.13" class="st0" width="24.75" height="24.75"/>
	<rect x="14.88" y="188.13" class="st0" width="24.75" height="24.75"/>
	<rect x="460.37" y="212.88" class="st0" width="24.75" height="24.75"/>
	<rect x="386.12" y="212.88" class="st0" width="24.75" height="24.75"/>
	<rect x="336.62" y="212.88" class="st0" width="24.75" height="24.75"/>
	<rect x="287.12" y="212.88" class="st0" width="24.75" height="24.75"/>
	<rect x="262.37" y="212.88" class="st0" width="24.75" height="24.75"/>
	<rect x="163.38" y="212.88" class="st0" width="24.75" height="24.75"/>
	<rect x="138.63" y="212.88" class="st0" width="24.75" height="24.75"/>
	<rect x="113.88" y="212.88" class="st0" width="24.75" height="24.75"/>
	<rect x="89.13" y="212.88" class="st0" width="24.75" height="24.75"/>
	<rect x="39.63" y="212.88" class="st0" width="24.75" height="24.75"/>
	<rect x="435.62" y="237.63" class="st0" width="24.75" height="24.75"/>
	<rect x="410.87" y="237.63" class="st0" width="24.75" height="24.75"/>
	<rect x="361.37" y="237.63" class="st0" width="24.75" height="24.75"/>
	<rect x="336.62" y="237.63" class="st0" width="24.75" height="24.75"/>
	<rect x="287.12" y="237.63" class="st0" width="24.75" height="24.75"/>
	<rect x="237.63" y="237.63" class="st0" width="24.75" height="24.75"/>
	<rect x="212.88" y="237.63" class="st0" width="24.75" height="24.75"/>
	<rect x="163.38" y="237.63" class="st0" width="24.75" height="24.75"/>
	<rect x="89.13" y="237.63" class="st0" width="24.75" height="24.75"/>
	<rect x="14.88" y="237.63" class="st0" width="24.75" height="24.75"/>
	<rect x="435.62" y="262.37" class="st0" width="24.75" height="24.75"/>
	<rect x="386.12" y="262.37" class="st0" width="24.75" height="24.75"/>
	<rect x="287.12" y="262.37" class="st0" width="24.75" height="24.75"/>
	<rect x="262.37" y="262.37" class="st0" width="24.75" height="24.75"/>
	<rect x="212.88" y="262.37" class="st0" width="24.75" height="24.75"/>
	<rect x="188.13" y="262.37" class="st0" width="24.75" height="24.75"/>
	<rect x="138.63" y="262.37" class="st0" width="24.75" height="24.75"/>
	<rect x="89.13" y="262.37" class="st0" width="24.75" height="24.75"/>
	<rect x="64.38" y="262.37" class="st0" width="24.75" height="24.75"/>
	<rect x="14.88" y="262.37" class="st0" width="24.75" height="24.75"/>
	<rect x="460.37" y="287.12" class="st0" width="24.75" height="24.75"/>
	<rect x="435.62" y="287.12" class="st0" width="24.75" height="24.75"/>
	<rect x="386.12" y="287.12" class="st0" width="24.75" height="24.75"/>
	<rect x="361.37" y="287.12" class="st0" width="24.75" height="24.75"/>
	<rect x="336.62" y="287.12" class="st0" width="24.75" height="24.75"/>
	<rect x="311.87" y="287.12" class="st0" width="24.75" height="24.75"/>
	<rect x="212.88" y="287.12" class="st0" width="24.75" height="24.75"/>
	<rect x="460.37" y="311.87" class="st0" width="24.75" height="24.75"/>
	<rect x="361.37" y="311.87" class="st0" width="24.75" height="24.75"/>
	<rect x="311.87" y="311.87" class="st0" width="24.75" height="24.75"/>
	<rect x="262.37" y="311.87" class="st0" width="24.75" height="24.75"/>
	<rect x="237.63" y="311.87" class="st0" width="24.75" height="24.75"/>
	<rect x="212.88" y="311.87" class="st0" width="24.75" height="24.75"/>
	<rect x="163.38" y="311.87" class="st0" width="24.75" height="24.75"/>
	<rect x="138.63" y="311.87" class="st0" width="24.75" height="24.75"/>
	<rect x="113.88" y="311.87" class="st0" width="24.75" height="24.75"/>
	<rect x="89.13" y="311.87" class="st0" width="24.75" height="24.75"/>
	<rect x="64.38" y="311.87" class="st0" width="24.75" height="24.75"/>
	<rect x="39.63" y="311.87" class="st0" width="24.75" height="24.75"/>
	<rect x="14.88" y="311.87" class="st0" width="24.75" height="24.75"/>
	<rect x="386.12" y="336.62" class="st0" width="24.75" height="24.75"/>
	<rect x="336.62" y="336.62" class="st0" width="24.75" height="24.75"/>
	<rect x="287.12" y="336.62" class="st0" width="24.75" height="24.75"/>
	<rect x="262.37" y="336.62" class="st0" width="24.75" height="24.75"/>
	<rect x="212.88" y="336.62" class="st0" width="24.75" height="24.75"/>
	<rect x="163.38" y="336.62" class="st0" width="24.75" height="24.75"/>
	<rect x="14.88" y="336.62" class="st0" width="24.75" height="24.75"/>
	<rect x="460.37" y="361.37" class="st0" width="24.75" height="24.75"/>
	<rect x="435.62" y="361.37" class="st0" width="24.75" height="24.75"/>
	<rect x="410.87" y="361.37" class="st0" width="24.75" height="24.75"/>
	<rect x="361.37" y="361.37" class="st0" width="24.75" height="24.75"/>
	<rect x="336.62" y="361.37" class="st0" width="24.75" height="24.75"/>
	<rect x="311.87" y="361.37" class="st0" width="24.75" height="24.75"/>
	<rect x="262.37" y="361.37" class="st0" width="24.75" height="24.75"/>
	<rect x="237.63" y="361.37" class="st0" width="24.75" height="24.75"/>
	<rect x="163.38" y="361.37" class="st0" width="24.75" height="24.75"/>
	<rect x="113.88" y="361.37" class="st0" width="24.75" height="24.75"/>
	<rect x="89.13" y="361.37" class="st0" width="24.75" height="24.75"/>
	<rect x="64.38" y="361.37" class="st0" width="24.75" height="24.75"/>
	<rect x="14.88" y="361.37" class="st0" width="24.75" height="24.75"/>
	<rect x="435.62" y="386.12" class="st0" width="24.75" height="24.75"/>
	<rect x="386.12" y="386.12" class="st0" width="24.75" height="24.75"/>
	<rect x="361.37" y="386.12" class="st0" width="24.75" height="24.75"/>
	<rect x="262.37" y="386.12" class="st0" width="24.75" height="24.75"/>
	<rect x="212.88" y="386.12" class="st0" width="24.75" height="24.75"/>
	<rect x="163.38" y="386.12" class="st0" width="24.75" height="24.75"/>
	<rect x="113.88" y="386.12" class="st0" width="24.75" height="24.75"/>
	<rect x="89.13" y="386.12" class="st0" width="24.75" height="24.75"/>
	<rect x="64.38" y="386.12" class="st0" width="24.75" height="24.75"/>
	<rect x="14.88" y="386.12" class="st0" width="24.75" height="24.75"/>
	<rect x="460.37" y="410.87" class="st0" width="24.75" height="24.75"/>
	<rect x="361.37" y="410.87" class="st0" width="24.75" height="24.75"/>
	<rect x="311.87" y="410.87" class="st0" width="24.75" height="24.75"/>
	<rect x="262.37" y="410.87" class="st0" width="24.75" height="24.75"/>
	<rect x="212.88" y="410.87" class="st0" width="24.75" height="24.75"/>
	<rect x="163.38" y="410.87" class="st0" width="24.75" height="24.75"/>
	<rect x="113.88" y="410.87" class="st0" width="24.75" height="24.75"/>
	<rect x="89.13" y="410.87" class="st0" width="24.75" height="24.75"/>
	<rect x="64.38" y="410.87" class="st0" width="24.75" height="24.75"/>
	<rect x="14.88" y="410.87" class="st0" width="24.75" height="24.75"/>
	<rect x="410.87" y="435.62" class="st0" width="24.75" height="24.75"/>
	<rect x="361.37" y="435.62" class="st0" width="24.75" height="24.75"/>
	<rect x="287.12" y="435.62" class="st0" width="24.75" height="24.75"/>
	<rect x="237.63" y="435.62" class="st0" width="24.75" height="24.75"/>
	<rect x="163.38" y="435.62" class="st0" width="24.75" height="24.75"/>
	<rect x="14.88" y="435.62" class="st0" width="24.75" height="24.75"/>
	<rect x="460.37" y="460.37" class="st0" width="24.75" height="24.75"/>
	<rect x="410.87" y="460.37" class="st0" width="24.75" height="24.75"/>
	<rect x="386.12" y="460.37" class="st0" width="24.75" height="24.75"/>
	<rect x="311.87" y="460.37" class="st0" width="24.75" height="24.75"/>
	<rect x="287.12" y="460.37" class="st0" width="24.75" height="24.75"/>
	<rect x="237.63" y="460.37" class="st0" width="24.75" height="24.75"/>
	<rect x="212.88" y="460.37" class="st0" width="24.75" height="24.75"/>
	<rect x="163.38" y="460.37" class="st0" width="24.75" height="24.75"/>
	<rect x="138.63" y="460.37" class="st0" width="24.75" height="24.75"/>
	<rect x="113.88" y="460.37" class="st0" width="24.75" height="24.75"/>
	<rect x="89.13" y="460.37" class="st0" width="24.75" height="24.75"/>
	<rect x="64.38" y="460.37" class="st0" width="24.75" height="24.75"/>
	<rect x="39.63" y="460.37" class="st0" width="24.75" height="24.75"/>
	<rect x="14.88" y="460.37" class="st0" width="24.75" height="24.75"/>
</g>
</svg>
