<?xml version="1.0" encoding="utf-8"?>
<!-- Generator: Adobe Illustrator 27.0.0, SVG Export Plug-In . SVG Version: 6.00 Build 0)  -->
<svg version="1.1" id="レイヤー_1" xmlns="http://www.w3.org/2000/svg" xmlns:xlink="http://www.w3.org/1999/xlink" x="0px"
	 y="0px" viewBox="0 0 500 500" style="enable-background:new 0 0 500 500;" xml:space="preserve">
<style type="text/css">
	.st0{fill-rule:evenodd;clip-rule:evenodd;fill:#FFFFFF;}
</style>
<path class="st0" d="M210.72,141.93c0-10.84,9.15-19.04,19.99-19.04h77.62v254.45h-77.62c-10.83,0-19.99-8.44-19.99-19.28V269.2
	h69.15c10.86,0,19.66-8.23,19.66-19.09c0-10.85-8.8-19.08-19.66-19.08h-69.15V141.93z M348.64,71.6l50.82,35.4
	c5.24,3.67,8.6,9.69,8.6,16.1V376.9c0,6.4-3.35,12.42-8.6,16.1l-50.82,35.4V71.6z M446.24,376.9V123.09
	c0-19.22-9.04-37.27-24.79-48.29l-81.35-57.04c-3.37-2.35-7.44-3.55-11.53-3.55c-3.2,0-6.4,0.73-9.26,2.22
	c-6.5,3.38-11,10.1-11,17.43v48.74h-77.62c-32.52,0-58.18,26.82-58.18,59.32v89.1h-51.65l25.42-25.75c7.68-7.67,7.68-20.29,0-27.96
	c-7.68-7.68-20.12-7.76-27.8-0.08l-58.98,58.91c-7.68,7.67-7.68,20.09,0,27.76l58.98,58.94c3.84,3.83,8.87,5.75,13.9,5.75
	c5.03,0,10.06-1.93,13.9-5.76c7.68-7.67,7.68-20.34,0-28.01l-25.42-25.63h51.65v88.87c0,32.51,25.66,59.56,58.18,59.56h77.62v48.51
	c0,7.33,4.59,14.05,11.09,17.43c2.86,1.49,6.23,2.22,9.34,2.22c3.96,0,8.04-1.19,11.4-3.55l81.23-57.03
	C437.14,414.17,446.24,396.12,446.24,376.9z"/>
</svg>
