<?xml version="1.0" encoding="utf-8"?>
<!-- Generator: Adobe Illustrator 27.0.0, SVG Export Plug-In . SVG Version: 6.00 Build 0)  -->
<svg version="1.1" id="レイヤー_1" xmlns="http://www.w3.org/2000/svg" xmlns:xlink="http://www.w3.org/1999/xlink" x="0px"
	 y="0px" viewBox="0 0 600 250" style="enable-background:new 0 0 600 250;" xml:space="preserve">
<style type="text/css">
	.st0{fill:#489425;}
	.st1{fill:#B7B800;}
	.st2{fill:#818182;}
</style>
<g>
	<g>
		<path class="st0" d="M109.35,105.51c-0.6-0.94-1.15-2.22-1.67-3.84c-0.51-1.62-0.77-3.33-0.77-5.12c0-3.33,0.75-5.72,2.24-7.17
			c1.49-1.45,3.44-2.18,5.83-2.18h55.84c0.6,0.94,1.15,2.22,1.66,3.84c0.51,1.62,0.77,3.33,0.77,5.12c0,3.33-0.75,5.72-2.24,7.17
			c-1.5,1.45-3.44,2.18-5.83,2.18h-14.22v59.17c-0.94,0.26-2.41,0.51-4.42,0.77c-2.01,0.26-3.99,0.38-5.95,0.38
			c-1.97,0-3.7-0.15-5.19-0.45c-1.5-0.3-2.75-0.83-3.78-1.6c-1.02-0.77-1.79-1.83-2.3-3.2c-0.51-1.36-0.77-3.16-0.77-5.38v-49.69
			H109.35z"/>
		<path class="st0" d="M187.86,89.89c1.45-0.85,3.65-1.66,6.6-2.43c2.95-0.77,5.91-1.15,8.9-1.15c4.27,0,8.05,0.62,11.33,1.86
			c3.29,1.24,5.4,3.18,6.34,5.83c1.54,4.44,3.2,9.61,4.99,15.5c1.79,5.89,3.59,11.97,5.38,18.25c1.79,6.28,3.54,12.47,5.25,18.57
			c1.71,6.11,3.2,11.51,4.48,16.2c-1.02,1.2-2.56,2.16-4.61,2.88c-2.05,0.72-4.48,1.09-7.3,1.09c-2.05,0-3.78-0.17-5.19-0.51
			c-1.41-0.34-2.56-0.85-3.46-1.54c-0.9-0.68-1.62-1.58-2.18-2.69c-0.56-1.11-1.05-2.39-1.47-3.84l-2.31-8.84h-23.18
			c-0.68,2.56-1.37,5.21-2.05,7.94c-0.68,2.73-1.37,5.38-2.05,7.94c-1.2,0.43-2.46,0.79-3.78,1.09c-1.32,0.3-2.93,0.45-4.8,0.45
			c-4.35,0-7.58-0.75-9.67-2.24c-2.09-1.49-3.14-3.56-3.14-6.21c0-1.2,0.17-2.39,0.51-3.59c0.34-1.19,0.72-2.6,1.15-4.23
			c0.6-2.3,1.43-5.17,2.5-8.58c1.07-3.41,2.24-7.11,3.52-11.08c1.28-3.97,2.64-8.05,4.1-12.23c1.45-4.18,2.82-8.13,4.1-11.85
			c1.28-3.71,2.45-7.02,3.52-9.93C186.43,93.65,187.27,91.42,187.86,89.89z M203.24,106.41c-1.2,3.59-2.54,7.58-4.03,11.98
			c-1.5,4.4-2.84,8.86-4.03,13.38h15.88c-1.2-4.61-2.41-9.11-3.65-13.51c-1.24-4.4-2.37-8.35-3.39-11.85H203.24z"/>
		<path class="st0" d="M271.12,134.33c-3.76-1.28-7.17-2.58-10.25-3.91c-3.07-1.32-5.72-2.92-7.94-4.8
			c-2.22-1.88-3.95-4.12-5.19-6.72c-1.24-2.6-1.86-5.78-1.86-9.54c0-7.26,2.8-13.07,8.39-17.42c5.59-4.35,13.43-6.53,23.5-6.53
			c3.67,0,7.09,0.26,10.25,0.77c3.16,0.51,5.87,1.3,8.13,2.37c2.26,1.07,4.03,2.43,5.32,4.1c1.28,1.67,1.92,3.61,1.92,5.83
			c0,2.22-0.52,4.12-1.54,5.7c-1.02,1.58-2.26,2.93-3.71,4.03c-1.88-1.19-4.4-2.24-7.56-3.14c-3.16-0.9-6.62-1.34-10.38-1.34
			c-3.84,0-6.66,0.54-8.45,1.6c-1.79,1.07-2.69,2.41-2.69,4.03c0,1.28,0.56,2.33,1.67,3.14c1.11,0.81,2.77,1.56,5,2.24l6.79,2.18
			c8.03,2.56,14.19,5.83,18.51,9.8c4.31,3.97,6.47,9.37,6.47,16.2c0,7.26-2.86,13.13-8.58,17.61c-5.72,4.48-14.13,6.72-25.23,6.72
			c-3.93,0-7.58-0.32-10.95-0.96c-3.37-0.64-6.32-1.58-8.84-2.82c-2.52-1.24-4.48-2.77-5.89-4.61c-1.41-1.83-2.11-3.95-2.11-6.34
			c0-2.48,0.73-4.59,2.18-6.34c1.45-1.75,3.03-3.09,4.74-4.03c2.39,1.88,5.31,3.5,8.77,4.87c3.46,1.37,7.24,2.05,11.34,2.05
			c4.18,0,7.13-0.64,8.84-1.92c1.7-1.28,2.56-2.77,2.56-4.48c0-1.71-0.69-3.01-2.05-3.91c-1.37-0.9-3.29-1.77-5.76-2.62
			L271.12,134.33z"/>
		<path class="st1" d="M313.51,105.51c-0.6-0.94-1.15-2.22-1.66-3.84c-0.51-1.62-0.77-3.33-0.77-5.12c0-3.33,0.75-5.72,2.24-7.17
			c1.49-1.45,3.44-2.18,5.83-2.18h55.84c0.6,0.94,1.15,2.22,1.67,3.84c0.51,1.62,0.77,3.33,0.77,5.12c0,3.33-0.75,5.72-2.24,7.17
			c-1.49,1.45-3.44,2.18-5.83,2.18h-14.22v59.17c-0.94,0.26-2.41,0.51-4.42,0.77c-2.01,0.26-3.99,0.38-5.96,0.38
			c-1.97,0-3.69-0.15-5.19-0.45c-1.49-0.3-2.75-0.83-3.78-1.6c-1.03-0.77-1.79-1.83-2.31-3.2c-0.51-1.36-0.77-3.16-0.77-5.38v-49.69
			H313.51z"/>
		<path class="st1" d="M394.58,89.89c1.45-0.85,3.65-1.66,6.6-2.43c2.95-0.77,5.91-1.15,8.9-1.15c4.27,0,8.05,0.62,11.34,1.86
			c3.29,1.24,5.4,3.18,6.34,5.83c1.54,4.44,3.2,9.61,5,15.5c1.79,5.89,3.59,11.97,5.38,18.25c1.79,6.28,3.54,12.47,5.25,18.57
			c1.71,6.11,3.2,11.51,4.48,16.2c-1.03,1.2-2.56,2.16-4.61,2.88c-2.05,0.72-4.48,1.09-7.3,1.09c-2.05,0-3.78-0.17-5.19-0.51
			c-1.41-0.34-2.56-0.85-3.46-1.54c-0.9-0.68-1.62-1.58-2.18-2.69c-0.55-1.11-1.05-2.39-1.47-3.84l-2.3-8.84h-23.18
			c-0.68,2.56-1.37,5.21-2.05,7.94c-0.68,2.73-1.37,5.38-2.05,7.94c-1.2,0.43-2.46,0.79-3.78,1.09c-1.32,0.3-2.93,0.45-4.8,0.45
			c-4.35,0-7.58-0.75-9.67-2.24c-2.09-1.49-3.14-3.56-3.14-6.21c0-1.2,0.17-2.39,0.51-3.59c0.34-1.19,0.72-2.6,1.15-4.23
			c0.6-2.3,1.43-5.17,2.5-8.58c1.07-3.41,2.24-7.11,3.52-11.08c1.28-3.97,2.64-8.05,4.1-12.23c1.45-4.18,2.82-8.13,4.1-11.85
			c1.28-3.71,2.45-7.02,3.52-9.93C393.15,93.65,393.99,91.42,394.58,89.89z M409.95,106.41c-1.2,3.59-2.54,7.58-4.03,11.98
			c-1.49,4.4-2.84,8.86-4.03,13.38h15.88c-1.2-4.61-2.41-9.11-3.65-13.51c-1.24-4.4-2.37-8.35-3.39-11.85H409.95z"/>
		<path class="st1" d="M490.26,103.21c-6.58,0-11.61,2.01-15.11,6.02c-3.5,4.01-5.25,9.69-5.25,17.03c0,7.43,1.94,13.15,5.83,17.16
			c3.89,4.01,9.11,6.02,15.69,6.02c3.5,0,6.47-0.47,8.9-1.41c2.43-0.94,4.76-2.01,6.98-3.2c1.45,1.2,2.58,2.63,3.4,4.29
			c0.81,1.66,1.22,3.61,1.22,5.83c0,3.5-1.94,6.47-5.83,8.9s-9.8,3.65-17.74,3.65c-5.72,0-11.1-0.81-16.14-2.43
			c-5.04-1.62-9.44-4.12-13.19-7.49c-3.76-3.37-6.72-7.64-8.9-12.81c-2.18-5.17-3.27-11.33-3.27-18.51c0-6.66,1.05-12.53,3.14-17.61
			c2.09-5.08,4.95-9.37,8.58-12.87c3.63-3.5,7.88-6.15,12.74-7.94c4.87-1.79,10.07-2.69,15.63-2.69c7.85,0,13.94,1.28,18.25,3.84
			c4.31,2.56,6.47,5.85,6.47,9.86c0,2.22-0.56,4.14-1.67,5.76c-1.11,1.62-2.39,2.9-3.84,3.84c-2.22-1.45-4.59-2.69-7.11-3.71
			C496.52,103.72,493.59,103.21,490.26,103.21z"/>
		<path class="st0" d="M543.8,136.38v28.31c-0.94,0.26-2.43,0.51-4.48,0.77c-2.05,0.26-4.06,0.38-6.02,0.38
			c-1.97,0-3.69-0.15-5.19-0.45c-1.49-0.3-2.75-0.83-3.78-1.6c-1.02-0.77-1.79-1.83-2.3-3.2c-0.51-1.36-0.77-3.16-0.77-5.38V87.58
			c0.94-0.17,2.43-0.4,4.48-0.7c2.05-0.3,4.01-0.45,5.89-0.45c1.96,0,3.69,0.15,5.19,0.45c1.49,0.3,2.75,0.83,3.78,1.6
			s1.79,1.84,2.31,3.2c0.51,1.37,0.77,3.16,0.77,5.38v20.36l26.64-30.61c5.81,0,9.97,1.09,12.49,3.27c2.52,2.18,3.78,4.76,3.78,7.75
			c0,2.22-0.56,4.31-1.66,6.28c-1.11,1.97-2.91,4.18-5.38,6.66l-16.01,16.01c2.13,2.39,4.38,4.87,6.72,7.43
			c2.35,2.56,4.65,5.06,6.92,7.49c2.26,2.43,4.44,4.76,6.53,6.98c2.09,2.22,3.9,4.14,5.44,5.76c0,1.88-0.34,3.54-1.03,5
			c-0.68,1.45-1.6,2.69-2.75,3.71c-1.15,1.03-2.46,1.79-3.91,2.3c-1.45,0.51-2.99,0.77-4.61,0.77c-3.5,0-6.36-0.88-8.58-2.62
			c-2.22-1.75-4.35-3.82-6.4-6.21L543.8,136.38z"/>
		<path class="st0" d="M91.74,121.16l-33.35,28.45c0,0-0.01-0.01-0.02-0.01l-1.31,1.11c-1.98-2.22-4.06-4.51-6.23-6.89
			c-2.17-2.37-4.31-4.69-6.41-6.95c-2.1-2.26-4.12-4.41-6.06-6.47c-1.94-2.06-3.62-3.84-5.05-5.34c0-1.74,0.32-3.29,0.95-4.63
			c0.63-1.35,1.48-2.49,2.55-3.44c1.07-0.95,2.28-1.66,3.62-2.14c1.35-0.48,2.77-0.71,4.27-0.71c3.25,0,5.9,0.81,7.96,2.43
			c2.02,1.59,3.96,3.47,5.82,5.64l33.75-28.79c-2.6-4.91-7.76-8.28-13.67-8.28H27.14c-8.5,0-15.46,6.96-15.46,15.46v51.43
			c0,8.5,6.96,15.46,15.46,15.46h51.43c8.5,0,15.46-6.96,15.46-15.46v-32.83L91.74,121.16z"/>
	</g>
	<g>
		<path class="st2" d="M23.76,48.93l-4.16-5.5c-0.11-0.15-0.19-0.31-0.19-0.42c0-0.27,0.19-0.42,0.57-0.5
			c5.12-0.84,9.55-2.79,12.99-5.77c-2.6-1.53-5.46-3.02-8.14-4.28c-0.95,0.92-1.91,1.68-2.9,2.33c-0.15,0.11-0.3,0.15-0.46,0.15
			c-0.19,0-0.38-0.08-0.54-0.23l-4.16-3.63c-0.19-0.15-0.27-0.34-0.27-0.5c0-0.19,0.11-0.38,0.38-0.53
			c5.12-3.02,8.29-8.44,9.47-11.81c0.15-0.38,0.38-0.57,0.84-0.57c5.54,0,13.9-0.04,20.51-0.08c0.5,0,0.73,0.27,0.69,0.76
			c-1.26,17.19-9.78,26.7-23.68,30.9C24.33,49.39,24.03,49.28,23.76,48.93z M37.32,31.55c1.34-2.22,2.29-4.78,2.83-7.64H30.9
			c-0.5,1.26-1.22,2.52-2.03,3.74C31.52,28.73,34.53,30.07,37.32,31.55z"/>
		<path class="st2" d="M58.39,48.17l-3.48-5.23c-0.11-0.15-0.15-0.27-0.15-0.42c0-0.23,0.19-0.46,0.54-0.54
			c11.54-3.21,17.46-12.53,18.3-15.97c-1.22,0-2.48,0-3.71,0l-7.45,0.11c-1.22,0-2.48,0-3.71,0c-0.46,0-0.73-0.23-0.73-0.72v-5.54
			c0-0.46,0.27-0.73,0.73-0.73h23.61c0.46,0,0.73,0.27,0.65,0.76c-0.61,5.04-2.64,9.97-5.62,14.36c3.25,2.37,6.8,5.2,9.44,8.33
			c0.15,0.15,0.19,0.34,0.19,0.5c0,0.19-0.08,0.38-0.27,0.54l-4.93,4.51c-0.15,0.15-0.34,0.23-0.5,0.23c-0.19,0-0.34-0.11-0.5-0.31
			c-2.14-2.98-4.93-6.19-7.68-8.56c-3.93,4.05-8.71,7.26-13.79,9.02C58.92,48.67,58.62,48.55,58.39,48.17z"/>
		<path class="st2" d="M100.12,49.47l-4.16-5.5c-0.11-0.15-0.19-0.31-0.19-0.42c0-0.27,0.19-0.42,0.57-0.5
			c10.5-1.72,18.22-8.21,20.17-18.6h-8.98c-1.72,4.16-5.42,8.59-8.98,10.89c-0.15,0.11-0.3,0.15-0.46,0.15
			c-0.19,0-0.34-0.07-0.54-0.23l-4.39-3.63c-0.19-0.15-0.3-0.34-0.3-0.5c0-0.19,0.15-0.38,0.42-0.54c5.08-2.98,8.25-8.44,9.44-11.8
			c0.15-0.38,0.38-0.57,0.84-0.57c5.54,0,13.9-0.04,20.51-0.08c0.5,0,0.73,0.27,0.69,0.76c-1.26,17.19-9.78,26.7-23.68,30.9
			C100.69,49.93,100.39,49.81,100.12,49.47z"/>
		<path class="st2" d="M138.26,42.36c0-2.44,1.41-5.08,4.32-7.07c1.19-0.8,2.67-1.61,4.43-2.44c-0.54-0.31-1.15-0.46-1.79-0.46
			c-1.8,0-3.9,1.18-5.5,3.4c-0.08,0.11-0.11,0.15-0.19,0.23c-1.07,1.45-2.1,2.87-3.06,4.2c-0.15,0.19-0.34,0.31-0.53,0.31
			c-0.15,0-0.34-0.08-0.5-0.19l-4.09-3.21c-0.19-0.15-0.3-0.34-0.3-0.54c0-0.15,0.08-0.34,0.23-0.5c2.86-3.02,5.58-6.61,7.3-10.09
			h-5.35c-0.46,0-0.73-0.27-0.73-0.72v-4.74c0-0.46,0.27-0.73,0.73-0.73h7.72c0.46-1.3,0.88-2.52,1.18-3.59
			c0.11-0.42,0.42-0.65,0.88-0.54l5.62,1.3c0.46,0.11,0.65,0.42,0.46,0.92c-0.27,0.69-0.54,1.34-0.76,1.91h10.43
			c0.46,0,0.73,0.27,0.73,0.73v4.74c0,0.46-0.27,0.72-0.73,0.72h-13.18c-0.31,0.61-0.65,1.3-0.99,2.02c0.76-0.19,1.6-0.3,2.41-0.3
			c2.22,0,4.51,0.8,6.11,2.6c2.18-0.8,4.51-1.64,6.91-2.52c0.46-0.15,0.8,0,0.95,0.42l1.83,4.89c0.15,0.46,0,0.8-0.46,0.92
			c-2.44,0.69-4.81,1.38-6.99,2.03c0.04,0.42,0.08,0.84,0.08,1.3c0,1.03-0.11,2.14-0.3,3.32c-0.08,0.46-0.34,0.69-0.76,0.69l-5,0.04
			c-0.5,0-0.76-0.31-0.65-0.84c0.19-0.84,0.27-1.64,0.31-2.33c-1.11,0.46-4.05,1.83-4.05,3.36c0,0.65,0.57,1.15,1.68,1.41
			c0.92,0.23,2.18,0.31,3.67,0.31c2.75,0,6.23-0.34,9.44-0.88c0.08,0,0.11,0,0.19,0c0.38,0,0.57,0.23,0.57,0.61l-0.08,5.2
			c0,0.46-0.27,0.73-0.73,0.76c-3.02,0.34-5.69,0.54-8.25,0.54c-1.87,0-3.67-0.11-5.42-0.31C140.86,48.67,138.26,45.69,138.26,42.36
			z"/>
		<path class="st2" d="M178.39,46.76l-2.06-5.65c-0.19-0.5,0.04-0.84,0.61-0.8c4.97,0.15,9.51-0.15,12.45-1.76
			c2.6-1.41,4.13-3.9,4.13-6.23c0-3.09-2.75-5.85-9.32-5.16c-5,0.5-9.63,1.83-13.14,2.87c-0.46,0.11-0.76-0.04-0.92-0.5l-1.76-5.46
			c-0.15-0.46,0.04-0.76,0.5-0.88c4.7-1.07,10.28-2.18,16.35-2.64c0.73-0.04,1.45-0.08,2.1-0.08c9.89,0,14.1,5.65,14.1,11.65
			c0,4.78-2.67,9.78-7.33,12.26c-4.32,2.29-10.08,2.87-14.86,2.94C178.81,47.33,178.54,47.18,178.39,46.76z"/>
		<path class="st2" d="M228.9,49.09c-0.46,0.11-0.73,0-0.96-0.38l-2.9-5c-0.08-0.15-0.11-0.27-0.11-0.38c0-0.27,0.19-0.46,0.57-0.54
			c5.92-1.22,8.25-4.47,8.25-7.53c0-1.34-0.42-2.6-1.15-3.7c-0.69-1.07-1.53-1.91-2.44-2.52c-1.95,6.61-4.09,11.88-8.33,16.12
			c-1.72,1.72-4.09,2.6-6.42,2.6c-2.44,0-4.89-0.99-6.38-2.98c-1.57-2.06-2.29-4.55-2.29-7.03c0-4.51,2.29-9.17,5.84-12.03
			c-0.57-2.67-0.95-5.08-1.15-6.95c-0.04-0.46,0.19-0.73,0.61-0.8l5.2-1.03c0.5-0.11,0.76,0.11,0.8,0.54
			c0.08,1.72,0.23,3.48,0.46,5.27c2.29-0.8,4.54-1.15,6.72-1.11c0.3-1.45,0.57-2.87,0.8-4.28c0.08-0.46,0.38-0.69,0.84-0.61
			l5.62,0.88c0.5,0.08,0.73,0.38,0.57,0.88c-0.42,1.49-0.8,2.94-1.19,4.36c2.64,1.15,4.89,3.02,6.49,5.46
			c1.26,1.91,2.06,4.55,2.06,7.29C240.44,40.99,237.38,46.91,228.9,49.09z M217.79,40.11c-1.34-2.25-2.41-4.85-3.32-7.49
			c-1.03,1.6-1.45,3.36-1.45,4.81c0,1.57,0.46,2.83,1.18,3.36c0.38,0.31,0.88,0.46,1.38,0.46c0.61,0,1.22-0.23,1.83-0.76
			C217.52,40.38,217.67,40.26,217.79,40.11z M221.72,33.62c0.76-1.83,1.45-3.9,2.06-6.07c-1.38,0.11-2.71,0.46-4.01,1.03
			C220.27,30.29,220.92,31.98,221.72,33.62z"/>
		<path class="st2" d="M248.4,40.15c0-1.53,0.42-3.09,1.22-4.55c0.19-0.38,0.5-0.5,0.92-0.42l4.81,0.99
			c0.54,0.11,0.65,0.46,0.42,0.92c-0.31,0.61-0.46,1.22-0.46,1.76c0,1.34,0.88,2.37,2.56,2.79c1.26,0.3,2.79,0.42,4.43,0.42
			c4.01,0,8.82-0.76,12.68-1.79c0.5-0.15,0.8,0.11,0.8,0.61l-0.04,5.92c0,0.42-0.19,0.69-0.61,0.8c-3.36,0.88-7.52,1.38-11.5,1.38
			c-2.75,0-5.46-0.23-7.72-0.73C250.77,47.18,248.4,43.78,248.4,40.15z M262.31,26.24c-3.97,0-8.06-0.27-11.73-0.72
			c-0.46-0.08-0.69-0.34-0.65-0.8l0.34-5.35c0.04-0.5,0.31-0.72,0.8-0.69c3.48,0.38,7.45,0.65,11.46,0.65
			c3.21,0,6.49-0.15,9.55-0.54c0.46-0.04,0.76,0.15,0.8,0.65l0.42,5.35c0.04,0.46-0.15,0.73-0.61,0.8
			C269.6,26.02,265.97,26.24,262.31,26.24z"/>
		<path class="st2" d="M289.83,47.75c-3.25,0-6.19-1.99-7.14-5.23c-0.23-0.73-0.31-1.53-0.31-2.33c0-3.06,1.53-6.42,4.47-8.4
			c2.02-1.34,4.66-2.41,7.98-2.6c0.35-2.14,0.54-4.17,0.69-5.54l-8.4,0.07c-0.5,0-0.76-0.27-0.76-0.72v-5.04
			c0-0.46,0.23-0.73,0.73-0.73h15.2c0.46,0,0.73,0.23,0.73,0.69l0.08,3.55c0,0.31,0,0.54-0.08,0.88c-0.54,2.71-0.96,5.16-1.34,7.33
			c1.87,0.27,3.78,0.61,5.69,1.11c0.19-1.91,0.23-3.93,0.19-6.19c0-0.5,0.27-0.76,0.76-0.72l5.54,0.61c0.46,0.04,0.69,0.34,0.69,0.8
			c-0.08,2.56-0.27,5.12-0.61,7.6c1.15,0.46,2.26,0.96,3.32,1.53c0.38,0.19,0.54,0.54,0.42,0.95l-1.57,5.46
			c-0.08,0.31-0.27,0.5-0.54,0.5c-0.11,0-0.27-0.08-0.42-0.15c-0.88-0.54-1.83-1.07-2.79-1.57c-1.6,4.78-4.16,8.67-8.17,10.62
			c-0.38,0.19-0.69,0.11-0.99-0.19l-4.24-4.05c-0.15-0.15-0.23-0.31-0.23-0.46c0-0.23,0.15-0.42,0.42-0.54
			c3.44-1.57,5.69-4.24,6.99-8.1c-1.87-0.65-3.74-1.22-5.54-1.6c-0.99,4.43-2.22,7.68-4.89,10.08
			C293.92,47.02,291.82,47.75,289.83,47.75z M289.79,36.48c-0.84,0.65-1.49,1.83-1.49,2.94c0,0.27,0.04,0.54,0.11,0.8
			c0.23,0.61,0.69,1.03,1.3,1.03c0.42,0,0.96-0.23,1.53-0.76c1.11-1.03,1.91-3.21,2.56-5.73C292.16,35.07,290.78,35.72,289.79,36.48
			z"/>
		<path class="st2" d="M329.19,48.93l-4.16-5.5c-0.11-0.15-0.19-0.31-0.19-0.42c0-0.27,0.19-0.42,0.57-0.5
			c5.12-0.84,9.55-2.79,12.99-5.77c-2.6-1.53-5.46-3.02-8.14-4.28c-0.96,0.92-1.91,1.68-2.9,2.33c-0.15,0.11-0.31,0.15-0.46,0.15
			c-0.19,0-0.38-0.08-0.53-0.23l-4.17-3.63c-0.19-0.15-0.27-0.34-0.27-0.5c0-0.19,0.11-0.38,0.38-0.53
			c5.12-3.02,8.29-8.44,9.47-11.81c0.15-0.38,0.38-0.57,0.84-0.57c5.54,0,13.9-0.04,20.51-0.08c0.5,0,0.72,0.27,0.69,0.76
			c-1.26,17.19-9.78,26.7-23.68,30.9C329.76,49.39,329.46,49.28,329.19,48.93z M342.75,31.55c1.34-2.22,2.29-4.78,2.83-7.64h-9.25
			c-0.5,1.26-1.22,2.52-2.02,3.74C336.95,28.73,339.96,30.07,342.75,31.55z"/>
		<path class="st2" d="M363.82,48.17l-3.48-5.23c-0.11-0.15-0.15-0.27-0.15-0.42c0-0.23,0.19-0.46,0.54-0.54
			c11.54-3.21,17.46-12.53,18.3-15.97c-1.22,0-2.48,0-3.7,0l-7.45,0.11c-1.22,0-2.48,0-3.71,0c-0.46,0-0.72-0.23-0.72-0.72v-5.54
			c0-0.46,0.27-0.73,0.72-0.73h23.61c0.46,0,0.72,0.27,0.65,0.76c-0.61,5.04-2.63,9.97-5.61,14.36c3.25,2.37,6.8,5.2,9.44,8.33
			c0.15,0.15,0.19,0.34,0.19,0.5c0,0.19-0.08,0.38-0.27,0.54l-4.93,4.51c-0.15,0.15-0.34,0.23-0.5,0.23c-0.19,0-0.34-0.11-0.5-0.31
			c-2.14-2.98-4.93-6.19-7.68-8.56c-3.94,4.05-8.71,7.26-13.79,9.02C364.35,48.67,364.05,48.55,363.82,48.17z"/>
		<path class="st2" d="M405.55,49.47l-4.16-5.5c-0.11-0.15-0.19-0.31-0.19-0.42c0-0.27,0.19-0.42,0.57-0.5
			c10.51-1.72,18.22-8.21,20.17-18.6h-8.98c-1.72,4.16-5.42,8.59-8.98,10.89c-0.15,0.11-0.31,0.15-0.46,0.15
			c-0.19,0-0.34-0.07-0.54-0.23l-4.39-3.63c-0.19-0.15-0.31-0.34-0.31-0.5c0-0.19,0.15-0.38,0.42-0.54
			c5.08-2.98,8.25-8.44,9.43-11.8c0.15-0.38,0.38-0.57,0.84-0.57c5.54,0,13.9-0.04,20.51-0.08c0.5,0,0.72,0.27,0.69,0.76
			c-1.26,17.19-9.78,26.7-23.68,30.9C406.12,49.93,405.82,49.81,405.55,49.47z"/>
		<path class="st2" d="M443.69,42.36c0-2.44,1.41-5.08,4.32-7.07c1.18-0.8,2.67-1.61,4.43-2.44c-0.53-0.31-1.15-0.46-1.79-0.46
			c-1.79,0-3.9,1.18-5.5,3.4c-0.08,0.11-0.11,0.15-0.19,0.23c-1.07,1.45-2.1,2.87-3.05,4.2c-0.15,0.19-0.34,0.31-0.54,0.31
			c-0.15,0-0.34-0.08-0.5-0.19l-4.09-3.21c-0.19-0.15-0.31-0.34-0.31-0.54c0-0.15,0.07-0.34,0.23-0.5c2.87-3.02,5.58-6.61,7.3-10.09
			h-5.35c-0.46,0-0.72-0.27-0.72-0.72v-4.74c0-0.46,0.27-0.73,0.72-0.73h7.72c0.46-1.3,0.88-2.52,1.18-3.59
			c0.11-0.42,0.42-0.65,0.88-0.54l5.62,1.3c0.46,0.11,0.65,0.42,0.46,0.92c-0.27,0.69-0.54,1.34-0.76,1.91h10.43
			c0.46,0,0.73,0.27,0.73,0.73v4.74c0,0.46-0.27,0.72-0.73,0.72h-13.18c-0.3,0.61-0.65,1.3-0.99,2.02c0.76-0.19,1.61-0.3,2.41-0.3
			c2.22,0,4.51,0.8,6.11,2.6c2.18-0.8,4.51-1.64,6.91-2.52c0.46-0.15,0.8,0,0.96,0.42l1.83,4.89c0.15,0.46,0,0.8-0.46,0.92
			c-2.44,0.69-4.81,1.38-6.99,2.03c0.04,0.42,0.08,0.84,0.08,1.3c0,1.03-0.11,2.14-0.31,3.32c-0.07,0.46-0.34,0.69-0.76,0.69
			l-5,0.04c-0.5,0-0.76-0.31-0.65-0.84c0.19-0.84,0.27-1.64,0.3-2.33c-1.11,0.46-4.05,1.83-4.05,3.36c0,0.65,0.57,1.15,1.68,1.41
			c0.92,0.23,2.18,0.31,3.67,0.31c2.75,0,6.23-0.34,9.44-0.88c0.08,0,0.11,0,0.19,0c0.38,0,0.57,0.23,0.57,0.61l-0.08,5.2
			c0,0.46-0.27,0.73-0.72,0.76c-3.02,0.34-5.69,0.54-8.25,0.54c-1.87,0-3.67-0.11-5.42-0.31C446.29,48.67,443.69,45.69,443.69,42.36
			z"/>
		<path class="st2" d="M477.48,40.15c0-1.53,0.42-3.09,1.22-4.55c0.19-0.38,0.5-0.5,0.92-0.42l4.81,0.99
			c0.54,0.11,0.65,0.46,0.42,0.92c-0.31,0.61-0.46,1.22-0.46,1.76c0,1.34,0.88,2.37,2.56,2.79c1.26,0.3,2.79,0.42,4.43,0.42
			c4.01,0,8.83-0.76,12.68-1.79c0.5-0.15,0.8,0.11,0.8,0.61l-0.04,5.92c0,0.42-0.19,0.69-0.61,0.8c-3.36,0.88-7.53,1.38-11.5,1.38
			c-2.75,0-5.46-0.23-7.72-0.73C479.85,47.18,477.48,43.78,477.48,40.15z M491.38,26.24c-3.97,0-8.06-0.27-11.73-0.72
			c-0.46-0.08-0.69-0.34-0.65-0.8l0.34-5.35c0.04-0.5,0.31-0.72,0.8-0.69c3.48,0.38,7.45,0.65,11.46,0.65c3.21,0,6.5-0.15,9.55-0.54
			c0.46-0.04,0.76,0.15,0.8,0.65l0.42,5.35c0.04,0.46-0.15,0.73-0.61,0.8C498.68,26.02,495.05,26.24,491.38,26.24z"/>
		<path class="st2" d="M511.87,42.1c0-0.15,0.04-0.31,0.15-0.46c2.79-4.47,5.16-9.17,6.87-14.36h-4.81c-0.46,0-0.72-0.27-0.72-0.72
			V21.7c0-0.46,0.27-0.72,0.72-0.72h6.27c0.3-1.38,0.61-2.83,0.8-4.28c0.07-0.46,0.34-0.69,0.8-0.65l5.54,0.38
			c0.46,0.04,0.69,0.31,0.61,0.8c-0.23,1.26-0.5,2.52-0.8,3.74h3.86c0.46,0,0.72,0.27,0.72,0.72v4.85c0,0.46-0.27,0.72-0.72,0.72
			h-5.39c-1.95,5.96-4.51,11.35-7.29,16.47c-0.19,0.38-0.5,0.5-0.92,0.38l-5.19-1.53C512.07,42.48,511.87,42.33,511.87,42.1z
			 M540.87,47.98c-0.19,0-0.38-0.11-0.54-0.31c-0.84-1.03-1.72-1.99-2.67-2.87c-1.3,3.4-5,4.78-8.4,4.78
			c-2.79,0-5.58-0.95-7.07-2.98c-0.8-1.07-1.19-2.37-1.19-3.67c0-2.18,1.03-4.35,2.94-5.81c1.57-1.19,3.48-1.68,5.61-1.68
			c0.73,0,1.45,0.08,2.22,0.19c-0.04-1.95-0.11-4.05-0.04-6.15c0-0.46,0.31-0.69,0.76-0.69h5c0.5,0,0.76,0.23,0.72,0.73
			c-0.11,2.56-0.07,5.42-0.07,8.14c2.63,1.26,5.12,2.94,7.11,4.81c0.19,0.15,0.27,0.34,0.27,0.5c0,0.19-0.11,0.34-0.27,0.54
			l-3.9,4.2C541.21,47.9,541.02,47.98,540.87,47.98z M529.44,40.57c-0.84,0-1.57,0.19-2.06,0.57c-0.42,0.31-0.61,0.76-0.61,1.19
			c0,0.38,0.11,0.76,0.42,1.03c0.46,0.46,1.26,0.69,2.06,0.69c1.98,0,2.6-1.11,2.67-2.94C531.09,40.76,530.21,40.57,529.44,40.57z
			 M533.27,26.51c-0.5-0.08-0.69-0.38-0.57-0.88l1.11-4.43c0.12-0.42,0.38-0.61,0.88-0.57c3.86,0.38,8.48,1.22,11.46,3.02
			c0.23,0.15,0.34,0.34,0.34,0.57c0,0.15-0.04,0.27-0.11,0.42l-2.91,4.74c-0.15,0.27-0.34,0.38-0.53,0.38
			c-0.15,0-0.31-0.08-0.5-0.19C540.03,27.89,537.01,27.05,533.27,26.51z"/>
		<path class="st2" d="M555.59,39.65c-0.11-2.22-0.11-5.81-0.08-9.7l-4.55,0.15c-0.46,0-0.76-0.23-0.76-0.69l-0.08-4.74
			c0-0.5,0.23-0.76,0.72-0.76l4.74-0.15c0-1.99,0.04-3.97,0.04-5.73c0-0.5,0.23-0.72,0.73-0.72h5.35c0.5,0,0.73,0.23,0.73,0.72
			c-0.04,1.87-0.11,3.71-0.15,5.5l9.59-0.34c-0.04-1.87-0.07-3.78-0.11-5.46c0-0.46,0.27-0.73,0.73-0.73l5.27,0.04
			c0.46,0,0.73,0.27,0.73,0.73c0.04,1.53,0.04,3.36,0.04,5.2l4.97-0.15c0.46,0,0.76,0.23,0.76,0.69l0.08,4.78
			c0,0.5-0.23,0.76-0.73,0.76l-5.2,0.19c-0.07,1.79-0.19,3.4-0.38,4.58c-0.65,4.47-2.75,5.69-5.77,6.04
			c-1.19,0.11-2.64,0.15-4.51,0.11c-0.46,0-0.69-0.19-0.8-0.61l-1.3-5.2c-0.15-0.53,0.15-0.84,0.69-0.76
			c1.91,0.19,3.25,0.27,3.93,0.19c0.92-0.11,1.26-0.69,1.37-1.41c0.11-0.69,0.15-1.64,0.19-2.75l-9.66,0.34
			c-0.04,1.3-0.04,2.52-0.04,3.67c0,2.14,0.04,4.01,0.11,5.5c0.11,1.95,0.92,2.9,2.94,3.17c0.76,0.08,1.95,0.15,3.55,0.15
			c2.56,0,6.15-0.19,10.7-0.76c0.04,0,0.11,0,0.15,0c0.42,0,0.65,0.23,0.65,0.69l-0.08,5.31c0,0.42-0.46,0.69-1.34,0.76
			c-3.13,0.23-6.03,0.34-8.56,0.34c-2.56,0-4.7-0.11-6.3-0.3C559.37,47.75,555.86,45.38,555.59,39.65z"/>
	</g>
	<g>
		<path class="st2" d="M13.6,232.1l10.47-25.54c0.1-0.3,0.36-0.43,0.65-0.43h4.58c0.33,0,0.52,0.13,0.65,0.43l10.47,25.54
			c0.03,0.1,0.07,0.17,0.07,0.23c0,0.26-0.2,0.43-0.49,0.43h-6.08c-0.33,0-0.56-0.13-0.65-0.46l-1.47-4.12H22.1l-1.44,4.12
			c-0.1,0.33-0.33,0.46-0.65,0.46h-5.95C13.63,232.76,13.44,232.46,13.6,232.1z M29.82,222.68l-2.91-8.21l-2.88,8.21H29.82z"/>
		<path class="st2" d="M48.16,232.17v-25.45c0-0.36,0.2-0.59,0.56-0.59h5.63c0.36,0,0.59,0.23,0.59,0.59v25.45
			c0,0.36-0.23,0.59-0.59,0.59h-5.63C48.35,232.76,48.16,232.53,48.16,232.17z"/>
		<path class="st2" d="M81.33,232.1l-1.18-4.84c-0.13-0.49,0.13-0.72,0.62-0.62c0.98,0.23,1.8,0.33,2.52,0.33
			c1.7,0,2.72-0.65,3.17-1.99c0.56-1.57,0.66-4.45,0.52-6.02c-0.16-2.06-0.46-2.42-1.77-2.45c-0.49,0-1.21,0-2.09,0
			c-1.41,5.36-3.34,10.99-5.66,15.9c-0.16,0.36-0.43,0.49-0.82,0.36l-4.48-1.41c-0.43-0.13-0.56-0.39-0.36-0.79
			c2.49-5.17,4.09-9.65,5.27-13.84c-1.44,0.1-2.94,0.2-4.42,0.33c-0.42,0.03-0.65-0.16-0.69-0.59l-0.23-4.51
			c-0.03-0.42,0.2-0.65,0.59-0.65c1.73-0.03,3.89-0.07,6.05-0.1c0.39-1.96,0.72-3.86,1.01-5.76c0.07-0.39,0.29-0.59,0.69-0.56
			l4.71,0.49c0.42,0.03,0.62,0.23,0.56,0.55c-0.23,1.64-0.56,3.4-0.95,5.23c0.95,0,1.77,0,2.39,0.03c4.12,0.16,5.56,2.03,5.92,6.34
			c0.23,2.62,0,7.42-0.56,9.36c-1.21,4.25-3.66,5.92-7.98,5.92c-0.69,0-1.41-0.07-2.19-0.13C81.63,232.66,81.43,232.46,81.33,232.1z
			 M95.53,222.06c-0.42-3.93-1.64-7.52-3.73-10.89c-0.07-0.13-0.1-0.23-0.1-0.36c0-0.19,0.13-0.36,0.39-0.46l2.26-0.78
			c-0.56-1.18-1.24-2.36-1.86-3.24c-0.1-0.13-0.13-0.26-0.13-0.39c0-0.19,0.13-0.32,0.42-0.42l1.96-0.62
			c0.33-0.1,0.59-0.03,0.82,0.23c1.18,1.31,2.19,3.24,2.72,4.74c0.13,0.39,0,0.66-0.39,0.79l-0.03,0.03
			c1.67,3.11,2.91,6.18,3.34,9.45c0.03,0.36-0.1,0.62-0.46,0.75l-4.48,1.64C95.82,222.68,95.56,222.52,95.53,222.06z M99.42,209.53
			c-0.46-1.34-1.28-3.11-2.39-4.58c-0.1-0.13-0.16-0.26-0.16-0.39c0-0.2,0.13-0.33,0.39-0.43l1.73-0.59
			c0.36-0.13,0.62-0.07,0.85,0.23c1.11,1.31,2.16,3.24,2.72,4.71c0.16,0.39,0,0.66-0.39,0.79l-1.96,0.66
			C99.81,210.06,99.55,209.89,99.42,209.53z"/>
		<path class="st2" d="M126.43,233.35l-1.7-4.35c-0.16-0.43,0.03-0.69,0.49-0.75c4.71-0.62,6.48-2.81,6.48-4.87
			c0-1.24-0.66-2.45-1.67-3.17c-2.32,4.09-5.23,8.34-9.35,11.05c-1.37,0.92-2.91,1.37-4.38,1.37c-2.45,0-4.71-1.28-5.76-3.89
			c-0.36-0.95-0.56-1.96-0.56-2.97c0-3.76,2.45-7.72,6.74-10.01c-0.03-0.59-0.03-1.18-0.03-1.73c0-0.43,0-0.82,0.03-1.24h-5.23
			c-0.39,0-0.62-0.23-0.62-0.62v-4.09c0-0.43,0.23-0.62,0.62-0.62h5.4c0.03-0.75,0.1-1.5,0.13-2.26c0.03-0.39,0.26-0.59,0.65-0.59
			l4.64,0.1c0.42,0,0.62,0.23,0.59,0.65c-0.07,0.69-0.13,1.41-0.16,2.09h13.48c0.39,0,0.62,0.2,0.62,0.62v4.09
			c0,0.39-0.23,0.62-0.62,0.62h-13.87c-0.03,0.52-0.07,1.05-0.1,1.54c0.88-0.1,1.8-0.13,2.72-0.13c2.22,0,4.42,0.26,6.08,0.82
			c4.29,1.41,6.67,5.17,6.67,8.96c0,4.45-3.24,8.96-10.53,9.85C126.82,233.84,126.56,233.71,126.43,233.35z M117.1,221.15
			c-1.08,1.18-1.67,2.52-1.67,3.79c0,0.52,0.1,1.01,0.33,1.5c0.23,0.46,0.62,0.72,1.08,0.72c0.26,0,0.59-0.1,0.88-0.3
			c0.16-0.13,0.33-0.23,0.52-0.36C117.69,224.81,117.33,223.01,117.1,221.15z M124.89,219.25c-0.29-0.03-0.59-0.03-0.88-0.03
			c-0.65,0-1.28,0.03-1.83,0.13c0.03,1.28,0.16,2.39,0.42,3.3C123.42,221.57,124.2,220.4,124.89,219.25z"/>
		<path class="st2" d="M146.53,226.97c0-0.13,0.03-0.26,0.13-0.39c2.39-3.83,4.42-7.85,5.89-12.3h-4.12c-0.39,0-0.62-0.23-0.62-0.62
			v-4.15c0-0.39,0.23-0.62,0.62-0.62h5.36c0.26-1.18,0.52-2.42,0.69-3.66c0.07-0.39,0.29-0.59,0.69-0.56l4.74,0.33
			c0.39,0.03,0.59,0.26,0.52,0.69c-0.2,1.08-0.42,2.16-0.69,3.21h3.3c0.39,0,0.62,0.23,0.62,0.62v4.15c0,0.39-0.23,0.62-0.62,0.62
			h-4.61c-1.67,5.1-3.86,9.72-6.25,14.1c-0.16,0.33-0.42,0.43-0.78,0.33l-4.45-1.31C146.69,227.3,146.53,227.16,146.53,226.97z
			 M171.35,232.01c-0.16,0-0.33-0.1-0.46-0.26c-0.72-0.88-1.47-1.7-2.29-2.45c-1.11,2.91-4.28,4.09-7.2,4.09
			c-2.39,0-4.78-0.82-6.05-2.55c-0.69-0.91-1.01-2.03-1.01-3.14c0-1.86,0.88-3.73,2.52-4.97c1.34-1.01,2.98-1.44,4.81-1.44
			c0.62,0,1.24,0.07,1.9,0.17c-0.03-1.67-0.1-3.47-0.03-5.27c0-0.39,0.26-0.59,0.65-0.59h4.28c0.42,0,0.65,0.2,0.62,0.62
			c-0.1,2.19-0.07,4.64-0.07,6.97c2.26,1.08,4.38,2.52,6.08,4.12c0.16,0.13,0.23,0.3,0.23,0.43c0,0.16-0.1,0.29-0.23,0.46l-3.34,3.6
			C171.65,231.94,171.48,232.01,171.35,232.01z M161.57,225.66c-0.72,0-1.34,0.16-1.77,0.49c-0.36,0.26-0.52,0.66-0.52,1.01
			c0,0.33,0.1,0.66,0.36,0.88c0.39,0.39,1.08,0.59,1.77,0.59c1.7,0,2.22-0.95,2.29-2.52C162.98,225.82,162.23,225.66,161.57,225.66z
			 M164.84,213.63c-0.42-0.07-0.59-0.33-0.49-0.75l0.95-3.79c0.1-0.36,0.33-0.52,0.75-0.49c3.3,0.33,7.26,1.05,9.81,2.58
			c0.2,0.13,0.29,0.3,0.29,0.49c0,0.13-0.03,0.23-0.1,0.36l-2.49,4.06c-0.13,0.23-0.29,0.32-0.46,0.32c-0.13,0-0.26-0.06-0.42-0.16
			C170.63,214.8,168.05,214.08,164.84,213.63z"/>
		<path class="st2" d="M184.88,231.06c2.75-6.64,4.45-12.23,5.56-17.33c-1.37,0-2.85,0-4.48,0c-0.39,0-0.62-0.19-0.62-0.62v-4.12
			c0-0.43,0.23-0.62,0.65-0.62c1.93,0,3.63,0,5.2,0c0.16-1.08,0.26-2.16,0.36-3.24c0.03-0.39,0.26-0.59,0.65-0.55l4.78,0.23
			c0.43,0.03,0.62,0.26,0.56,0.68c-0.13,0.95-0.26,1.9-0.46,2.88c1.6-0.03,3.27-0.03,5.17-0.03c0.42,0,0.62,0.2,0.62,0.62v4.12
			c0,0.42-0.2,0.62-0.62,0.62c-2.19,0-4.09,0-5.92,0c-1.11,5.79-2.68,11.87-5.1,19.07c-0.13,0.39-0.39,0.52-0.75,0.43l-5.2-1.34
			C184.85,231.74,184.72,231.45,184.88,231.06z M206.14,232.89c-2.45,0-4.81-0.46-6.74-1.6c-1.9-1.14-3.07-2.88-3.43-5.04
			c-0.1-0.36,0.1-0.62,0.46-0.72l3.86-1.18c0.39-0.13,0.62,0.03,0.79,0.42c0.33,0.88,0.88,1.47,1.83,1.93
			c0.98,0.46,2.06,0.66,3.3,0.66c1.67,0,3.56-0.36,5.69-0.92c0.42-0.1,0.69,0.1,0.69,0.52l0.07,4.51c0,0.36-0.16,0.62-0.52,0.69
			C210.16,232.6,208.1,232.89,206.14,232.89z M204.77,219.81c-1.86,0-3.7,0.19-5.76,0.55c-0.39,0.07-0.65-0.1-0.69-0.52l-0.39-4.35
			c-0.03-0.39,0.16-0.66,0.56-0.69c2.36-0.23,4.61-0.43,6.84-0.43c2.03,0,4.05,0.16,6.15,0.52c0.39,0.07,0.56,0.3,0.52,0.69
			l-0.42,4.32c-0.03,0.42-0.29,0.59-0.69,0.52C208.69,220.04,206.73,219.81,204.77,219.81z"/>
		<path class="st2" d="M236.94,231.87l-1.77-4.61c-0.16-0.43,0.03-0.69,0.52-0.72c6.61-0.33,8.83-4.02,8.83-7.49
			c0-0.69-0.1-1.37-0.26-2.03c-0.69-2.75-2.55-4.42-4.81-5.2c-0.29,4.74-2.62,11.77-5.63,16.16c-1.08,1.6-2.94,2.42-4.84,2.42
			c-1.77,0-3.63-0.72-4.97-2.16c-1.8-1.93-2.85-4.71-2.85-7.72c0-3.86,1.73-8.11,5.92-11.35c2.55-1.99,5.92-3.01,9.26-3.01
			c5.85,0,11.77,3.08,13.64,9.45c0.39,1.34,0.59,2.68,0.59,3.96c0,6.8-5.33,12.33-12.92,12.79
			C237.3,232.4,237.07,232.24,236.94,231.87z M230.27,213.46c-2.22,1.9-3.43,4.51-3.43,6.87c0,1.31,0.36,2.55,1.18,3.53
			c0.2,0.23,0.46,0.36,0.72,0.36c0.29,0,0.62-0.17,0.85-0.52c2-2.97,3.76-8.67,3.93-11.97
			C232.29,212.09,231.18,212.67,230.27,213.46z"/>
		<path class="st2" d="M269.67,209.67v3.24c0,0.33-0.2,0.52-0.52,0.52h-10.86c-0.33,0-0.52-0.2-0.52-0.52v-3.24
			c0-0.32,0.2-0.52,0.52-0.52h10.86C269.47,209.14,269.67,209.34,269.67,209.67z M287.69,204.83v13.97c0,0.33-0.19,0.52-0.52,0.52
			h-5.36v1.15h6.15c0.33,0,0.52,0.2,0.52,0.52v3.5c0,0.33-0.19,0.52-0.52,0.52h-4.55c1.5,1.41,3.2,2.39,5.2,3.14
			c0.33,0.13,0.43,0.36,0.26,0.69l-2.16,4.42c-0.1,0.2-0.23,0.3-0.39,0.3c-0.1,0-0.2-0.03-0.33-0.13c-1.64-1.15-3.04-2.55-4.32-4.38
			l0.13,4.78c0,0.33-0.2,0.52-0.52,0.52h-4.48c-0.33,0-0.52-0.2-0.52-0.52l0.13-4.71c-1.34,1.96-2.97,3.53-4.58,4.51
			c-0.29,0.17-0.56,0.1-0.72-0.19l-1.86-3.6v3.24c0,0.32-0.2,0.52-0.52,0.52H259c-0.33,0-0.52-0.2-0.52-0.52v-8.96
			c0-0.33,0.2-0.52,0.52-0.52h9.71c0.33,0,0.52,0.2,0.52,0.52v4.25c1.9-0.69,3.7-1.8,5.33-3.34h-4.19c-0.33,0-0.52-0.19-0.52-0.52
			v-3.5c0-0.33,0.2-0.52,0.52-0.52h5.89v-1.15h-5.36c-0.33,0-0.52-0.19-0.52-0.52v-13.97c0-0.33,0.19-0.52,0.52-0.52h16.26
			C287.49,204.3,287.69,204.5,287.69,204.83z M269.08,204.83v2.84c0,0.33-0.19,0.52-0.52,0.52h-9.26c-0.32,0-0.52-0.2-0.52-0.52
			v-2.84c0-0.33,0.2-0.52,0.52-0.52h9.26C268.88,204.3,269.08,204.5,269.08,204.83z M269.08,214.9v2.62c0,0.33-0.19,0.52-0.52,0.52
			h-9.26c-0.32,0-0.52-0.19-0.52-0.52v-2.62c0-0.32,0.2-0.52,0.52-0.52h9.26C268.88,214.38,269.08,214.57,269.08,214.9z
			 M269.08,219.48v2.62c0,0.33-0.19,0.52-0.52,0.52h-9.26c-0.32,0-0.52-0.2-0.52-0.52v-2.62c0-0.33,0.2-0.52,0.52-0.52h9.26
			C268.88,218.95,269.08,219.15,269.08,219.48z M263.09,229.49h1.86v-1.96h-1.86V229.49z M277.02,208.75h-1.93v1.73h1.93V208.75z
			 M277.02,213.49h-1.93v1.73h1.93V213.49z M281.08,210.49h1.93v-1.73h-1.93V210.49z M283.01,213.49h-1.93v1.73h1.93V213.49z"/>
		<path class="st2" d="M325.25,204.79v3.2c0,0.33-0.2,0.52-0.52,0.52h-4.81c-0.13,0.32-0.26,0.69-0.43,1.05h4.38
			c0.33,0,0.52,0.19,0.52,0.52v13.31c0,0.32-0.19,0.52-0.52,0.52h-2.26c1.11,0.59,2.45,1.01,3.79,1.28
			c0.39,0.07,0.52,0.33,0.36,0.66l-1.15,2.35c0.43-0.03,0.79-0.03,1.15-0.07c0.39-0.03,0.59,0.23,0.46,0.59l-1.5,4.48
			c-0.1,0.3-0.26,0.46-0.56,0.46c-1.54,0.06-4.77,0.1-8.08,0.1c-3.27,0-6.61-0.03-8.4-0.1c-3.93-0.13-6.09-1.08-7.62-2.88
			c-0.23,1.15-0.52,2.13-0.85,2.94c-0.13,0.33-0.39,0.39-0.72,0.23l-3.5-1.86c-0.26-0.13-0.36-0.36-0.26-0.62
			c0.95-2.35,1.5-5.56,1.57-8.54c0-0.36,0.2-0.52,0.56-0.52l3.27,0.33c0.36,0.03,0.52,0.2,0.49,0.56c-0.03,0.65-0.1,1.44-0.2,2.16
			c0.26,0.39,0.59,0.79,0.95,1.11v-4.87h-5.23c-0.32,0-0.52-0.2-0.52-0.52v-3.46c0-0.33,0.2-0.52,0.52-0.52l13.18-0.03
			c0.36,0,0.52,0.2,0.52,0.52v3.47c0,0.33-0.16,0.52-0.52,0.52h-2.98v1.28h2.68c0.33,0,0.52,0.19,0.52,0.52v1.73
			c1.47-0.26,2.81-0.69,3.96-1.28h-2.26c-0.32,0-0.52-0.2-0.52-0.52v-13.31c0-0.33,0.2-0.52,0.52-0.52h2.59
			c0.13-0.33,0.26-0.66,0.42-1.05h-3.66c-0.33,0-0.52-0.2-0.52-0.52v-3.2c0-0.33,0.2-0.52,0.52-0.52h14.13
			C325.06,204.27,325.25,204.47,325.25,204.79z M309.36,204.79v10.96c0,0.33-0.2,0.52-0.52,0.52h-12.01c-0.32,0-0.52-0.19-0.52-0.52
			v-10.96c0-0.33,0.2-0.52,0.52-0.52h12.01C309.16,204.27,309.36,204.47,309.36,204.79z M301.18,209.31h3.3V208h-3.3V209.31z
			 M304.48,211.6h-3.3v1.31h3.3V211.6z M307.75,228.5c0.66,0.03,1.54,0.03,2.55,0.03l-0.98-1.8c-0.07,0.03-0.17,0.07-0.3,0.07h-2.68
			v1.6C306.81,228.47,307.26,228.47,307.75,228.5z M316.98,226.28c0,0.62-2.88,2.03-3.44,2.26c2.39-0.03,5.07-0.1,7.49-0.17
			c-1.08-0.49-2.09-1.11-2.84-1.8c-0.13-0.1-0.2-0.23-0.2-0.36c0-0.1,0.07-0.23,0.17-0.36l1.57-1.93h-4.48l1.6,1.99
			C316.95,226.05,316.98,226.15,316.98,226.28z M315.77,213.92h3.5v-1.28h-3.5V213.92z M319.27,216.17h-3.5v1.34h3.5V216.17z
			 M319.27,219.54h-3.5v1.31h3.5V219.54z"/>
		<path class="st2" d="M340.06,227.2c0-2.09,1.21-4.35,3.7-6.05c1.01-0.69,2.29-1.37,3.79-2.09c-0.46-0.26-0.98-0.39-1.54-0.39
			c-1.54,0-3.33,1.01-4.71,2.91c-0.07,0.1-0.1,0.13-0.16,0.2c-0.92,1.24-1.8,2.45-2.62,3.6c-0.13,0.17-0.29,0.26-0.46,0.26
			c-0.13,0-0.29-0.07-0.43-0.17l-3.5-2.75c-0.16-0.13-0.26-0.3-0.26-0.46c0-0.13,0.07-0.3,0.2-0.43c2.45-2.58,4.77-5.66,6.25-8.63
			h-4.58c-0.39,0-0.62-0.23-0.62-0.62v-4.06c0-0.39,0.23-0.62,0.62-0.62h6.61c0.39-1.11,0.75-2.16,1.01-3.07
			c0.1-0.36,0.36-0.56,0.75-0.46l4.81,1.11c0.39,0.1,0.56,0.36,0.39,0.79c-0.23,0.59-0.46,1.15-0.66,1.64h8.93
			c0.39,0,0.62,0.23,0.62,0.62v4.06c0,0.39-0.23,0.62-0.62,0.62H346.3c-0.26,0.52-0.56,1.11-0.85,1.73
			c0.65-0.17,1.37-0.26,2.06-0.26c1.9,0,3.86,0.68,5.23,2.22c1.86-0.69,3.86-1.41,5.92-2.16c0.39-0.13,0.69,0,0.82,0.36l1.57,4.19
			c0.13,0.39,0,0.69-0.39,0.79c-2.09,0.59-4.12,1.18-5.98,1.73c0.03,0.36,0.07,0.72,0.07,1.11c0,0.88-0.1,1.83-0.26,2.85
			c-0.06,0.39-0.29,0.59-0.65,0.59l-4.29,0.03c-0.43,0-0.66-0.26-0.56-0.72c0.16-0.72,0.23-1.41,0.26-1.99
			c-0.95,0.39-3.47,1.57-3.47,2.88c0,0.55,0.49,0.98,1.44,1.21c0.79,0.2,1.86,0.26,3.14,0.26c2.35,0,5.33-0.29,8.08-0.75
			c0.07,0,0.1,0,0.17,0c0.33,0,0.49,0.19,0.49,0.52l-0.07,4.45c0,0.39-0.23,0.62-0.62,0.65c-2.58,0.3-4.87,0.46-7.07,0.46
			c-1.6,0-3.14-0.1-4.64-0.26C342.28,232.6,340.06,230.04,340.06,227.2z"/>
		<path class="st2" d="M386.82,233.31c-2.95,0-5.6-0.3-7.88-1.01c-3.5-1.08-5.72-3.99-5.72-7.26c0-3.08,1.96-6.48,6.57-9.09
			c-0.82-3.11-0.88-6.64-0.95-10.14c0-0.42,0.23-0.65,0.62-0.65h5.36c0.43,0,0.66,0.23,0.62,0.65c-0.1,3.01-0.07,5.5,0.29,7.75
			c2.42-0.72,5.3-1.37,8.27-1.93c0.36-0.06,0.62,0.1,0.75,0.46l1.6,4.71c0.13,0.42-0.03,0.69-0.46,0.75
			c-4.55,0.75-8.7,1.67-11.61,2.81c-3.4,1.34-4.58,3.01-4.58,4.38c0,0.92,0.52,1.67,1.31,2.03c1.08,0.49,2.84,0.68,4.87,0.68
			c3.27,0,7.23-0.49,10.17-1.01c0.07,0,0.1,0,0.17,0c0.29,0,0.49,0.19,0.49,0.56l-0.1,4.91c0,0.36-0.23,0.59-0.59,0.65
			C392.73,233.02,389.66,233.31,386.82,233.31z M392.44,210.68c-0.69-1.6-1.73-3.3-2.78-4.58c-0.1-0.13-0.16-0.26-0.16-0.39
			c0-0.19,0.13-0.36,0.39-0.46l1.86-0.75c0.33-0.13,0.59-0.1,0.82,0.16c1.08,1.11,2.45,3.14,3.17,4.71c0.2,0.39,0.03,0.69-0.33,0.82
			l-2.16,0.85C392.9,211.17,392.6,211.07,392.44,210.68z M396.95,208.95c-0.66-1.47-1.83-3.27-2.81-4.42
			c-0.13-0.13-0.2-0.29-0.2-0.42c0-0.17,0.13-0.33,0.39-0.43l1.83-0.75c0.33-0.13,0.59-0.07,0.85,0.19
			c1.05,1.11,2.42,3.08,3.14,4.58c0.17,0.36,0.03,0.65-0.36,0.82l-2.03,0.75C397.41,209.4,397.12,209.31,396.95,208.95z"/>
		<path class="st2" d="M407.83,230.73c2.62-7.26,7.1-18.51,9.52-25.54c0.13-0.39,0.39-0.52,0.79-0.39l5.13,1.57
			c0.39,0.13,0.52,0.39,0.36,0.79c-1.47,3.4-3.46,7.78-4.84,11.09c0.82-0.46,1.77-0.72,2.71-0.72c2.16,0,4.22,1.41,4.55,4.87
			c0.1,0.92,0.13,1.77,0.2,2.68c0.1,1.31,0.69,1.96,1.37,1.96c0.62,0,1.31-0.46,1.9-1.37c0.75-1.15,1.34-3.83,1.67-6.87
			c0.03-0.46,0.33-0.66,0.75-0.46l4.74,2.03c0.32,0.13,0.49,0.39,0.42,0.79c-0.56,4.12-1.54,7.1-3.3,9.16
			c-1.6,1.86-4.09,2.94-6.44,2.94c-2.97,0-5.79-1.73-6.47-5.72c-0.13-0.75-0.17-1.93-0.2-3.07c-0.03-1.05-0.49-1.57-1.11-1.57
			c-1.05,0-2.65,1.44-3.79,4.42c-0.66,1.9-1.28,3.83-1.8,5.53c-0.13,0.39-0.39,0.52-0.78,0.39l-5-1.7
			C407.83,231.38,407.7,231.09,407.83,230.73z"/>
		<path class="st2" d="M461.43,233.31c-2.95,0-5.6-0.3-7.88-1.01c-3.5-1.08-5.72-3.99-5.72-7.26c0-3.08,1.96-6.48,6.57-9.09
			c-0.82-3.11-0.88-6.64-0.95-10.14c0-0.42,0.23-0.65,0.62-0.65h5.36c0.43,0,0.66,0.23,0.62,0.65c-0.1,3.01-0.07,5.5,0.29,7.75
			c2.42-0.72,5.3-1.37,8.27-1.93c0.36-0.06,0.62,0.1,0.75,0.46l1.6,4.71c0.13,0.42-0.03,0.69-0.46,0.75
			c-4.55,0.75-8.7,1.67-11.61,2.81c-3.4,1.34-4.58,3.01-4.58,4.38c0,0.92,0.52,1.67,1.31,2.03c1.08,0.49,2.84,0.68,4.87,0.68
			c3.27,0,7.23-0.49,10.17-1.01c0.07,0,0.1,0,0.17,0c0.29,0,0.49,0.19,0.49,0.56l-0.1,4.91c0,0.36-0.23,0.59-0.59,0.65
			C467.35,233.02,464.27,233.31,461.43,233.31z M467.05,210.68c-0.69-1.6-1.73-3.3-2.78-4.58c-0.1-0.13-0.16-0.26-0.16-0.39
			c0-0.19,0.13-0.36,0.39-0.46l1.86-0.75c0.33-0.13,0.59-0.1,0.82,0.16c1.08,1.11,2.45,3.14,3.17,4.71c0.2,0.39,0.03,0.69-0.32,0.82
			l-2.16,0.85C467.51,211.17,467.22,211.07,467.05,210.68z M471.57,208.95c-0.66-1.47-1.83-3.27-2.81-4.42
			c-0.13-0.13-0.2-0.29-0.2-0.42c0-0.17,0.13-0.33,0.39-0.43l1.83-0.75c0.33-0.13,0.59-0.07,0.85,0.19
			c1.05,1.11,2.42,3.08,3.14,4.58c0.17,0.36,0.03,0.65-0.36,0.82l-2.03,0.75C472.03,209.4,471.73,209.31,471.57,208.95z"/>
		<path class="st2" d="M482.44,230.73c2.62-7.26,7.1-18.51,9.52-25.54c0.13-0.39,0.39-0.52,0.79-0.39l5.13,1.57
			c0.39,0.13,0.52,0.39,0.36,0.79c-1.47,3.4-3.46,7.78-4.84,11.09c0.82-0.46,1.77-0.72,2.71-0.72c2.16,0,4.22,1.41,4.55,4.87
			c0.1,0.92,0.13,1.77,0.2,2.68c0.1,1.31,0.69,1.96,1.37,1.96c0.62,0,1.31-0.46,1.9-1.37c0.75-1.15,1.34-3.83,1.67-6.87
			c0.03-0.46,0.33-0.66,0.75-0.46l4.74,2.03c0.32,0.13,0.49,0.39,0.42,0.79c-0.56,4.12-1.54,7.1-3.3,9.16
			c-1.6,1.86-4.09,2.94-6.44,2.94c-2.97,0-5.79-1.73-6.47-5.72c-0.13-0.75-0.17-1.93-0.2-3.07c-0.03-1.05-0.49-1.57-1.11-1.57
			c-1.05,0-2.65,1.44-3.79,4.42c-0.66,1.9-1.28,3.83-1.8,5.53c-0.13,0.39-0.39,0.52-0.78,0.39l-5-1.7
			C482.44,231.38,482.31,231.09,482.44,230.73z"/>
		<path class="st2" d="M523.02,203.58l4.22,0.3c0.39,0.03,0.56,0.26,0.43,0.62c-0.07,0.23-0.17,0.43-0.26,0.66h5.56
			c0.33,0,0.52,0.19,0.52,0.52v3.37c0,0.52-0.66,1.6-0.95,2.03h1.44c0.33,0,0.52,0.19,0.52,0.52v9.98c0.62-1.7,0.92-3.47,1.15-5.1
			c0.03-0.36,0.26-0.49,0.59-0.43l2.52,0.59c0.33,0.07,0.46,0.3,0.43,0.62c-0.03,0.23-0.07,0.46-0.1,0.69H540v-1.67
			c0-0.33,0.19-0.52,0.52-0.52h4.55c0.33,0,0.52,0.19,0.52,0.52v1.67h3.07c0.33,0,0.52,0.19,0.52,0.52v3.93
			c0,0.33-0.2,0.52-0.52,0.52h-3.07v1.96h3.89c0.33,0,0.52,0.2,0.52,0.52v3.93c0,0.32-0.2,0.52-0.52,0.52h-3.89v3.93
			c0,0.33-0.2,0.52-0.52,0.52h-4.55c-0.33,0-0.52-0.19-0.52-0.52v-3.93h-4.25c-0.33,0-0.52-0.2-0.52-0.52v-3.93
			c0-0.33,0.2-0.52,0.52-0.52H540v-1.96h-1.11c-0.16,0.52-0.36,1.05-0.56,1.47c-0.13,0.3-0.39,0.36-0.69,0.26l-3.14-1.15v5.82
			c0,4.19-1.41,4.94-6.02,4.84c-0.33,0-0.52-0.13-0.62-0.43l-1.24-3.53c-0.03-0.06-0.03-0.16-0.03-0.23c0-0.23,0.17-0.36,0.49-0.36
			h0.03c2.55,0.07,2.68-0.33,2.68-1.24v-0.75h-5c-0.2,2.16-0.62,4.35-1.28,6.18c-0.13,0.33-0.36,0.43-0.69,0.26l-4.09-2.09
			c-0.3-0.13-0.36-0.39-0.23-0.69c1.11-2.45,1.67-5.98,1.67-11.41v-4.58c-0.1,0.1-0.2,0.2-0.29,0.26c-0.1,0.1-0.2,0.13-0.3,0.13
			c-0.16,0-0.29-0.13-0.36-0.39l-1.01-4.78c-0.06-0.26,0-0.46,0.23-0.69c1.64-1.54,3.17-3.86,3.96-5.85
			C522.53,203.68,522.73,203.55,523.02,203.58z M528.03,209.67h-2.88c-0.33,0.49-0.62,0.95-0.95,1.41h2.91
			C527.47,210.58,527.76,210.09,528.03,209.67z M525.87,215.59h-1.31v2.16h1.31V215.59z M525.87,221.21h-1.31v2.42h1.31V221.21z
			 M530.12,215.59h-1.34v2.16h1.34V215.59z M530.12,221.21h-1.34v2.42h1.34V221.21z M535.25,204.3h13.61c0.33,0,0.52,0.2,0.52,0.52
			c0,1.21-0.03,4.28-0.16,6.02c-0.23,3.01-1.28,4.74-6.22,4.64c-0.29,0-0.49-0.13-0.59-0.43l-0.78-2.62
			c-0.62,1.47-1.54,2.68-2.95,3.63c-0.13,0.1-0.23,0.13-0.32,0.13c-0.13,0-0.26-0.07-0.39-0.2l-3.01-3.07
			c-0.13-0.13-0.16-0.26-0.16-0.36c0-0.13,0.06-0.26,0.23-0.36c1.24-0.72,2.09-1.6,2.45-3.01h-2.22c-0.33,0-0.52-0.2-0.52-0.52
			v-3.86C534.73,204.5,534.93,204.3,535.25,204.3z M542.06,211.27c2.06,0.07,1.96-0.36,2.09-1.11c0.03-0.2,0.03-0.72,0.03-0.95h-1.7
			C542.38,209.93,542.25,210.62,542.06,211.27z"/>
		<path class="st2" d="M565.89,215.42c0,0.13-0.03,0.23-0.13,0.36l-2.71,3.83c-0.13,0.16-0.26,0.26-0.39,0.26
			c-0.1,0-0.23-0.06-0.36-0.16c-1.57-1.28-3.56-2.39-5.56-3.27c-0.2-0.1-0.33-0.23-0.33-0.39c0-0.1,0.03-0.19,0.13-0.32l2.55-3.7
			c0.16-0.26,0.43-0.33,0.75-0.2C560.69,212.18,565.89,214.57,565.89,215.42z M565.11,222.29v-4.29c0-0.33,0.19-0.52,0.52-0.52h5.46
			c0-0.1,0-0.2,0.03-0.26v-0.59c0.03-0.06,0.03-0.16,0.03-0.26c0.03-1.11,0.03-2.29,0.03-3.43h-4.32c-0.33,0-0.52-0.2-0.52-0.52
			v-4.19l-2.97,3.76c-0.1,0.13-0.23,0.2-0.36,0.2c-0.1,0-0.23-0.03-0.36-0.16c-1.5-1.37-3.76-2.62-5.37-3.37
			c-0.19-0.1-0.29-0.23-0.29-0.39c0-0.1,0.03-0.19,0.13-0.32l2.94-3.7c0.17-0.26,0.39-0.33,0.66-0.23c1.86,0.65,4.15,1.9,5.72,3.3
			c0.07,0.07,0.13,0.13,0.17,0.2c0.06-0.03,0.16-0.07,0.26-0.07h4.32v-3.37c0-0.32,0.2-0.52,0.52-0.52h5.17
			c0.33,0,0.52,0.2,0.52,0.52v3.37h6.84c0.33,0,0.52,0.2,0.52,0.52v9.52h1.11c0.33,0,0.52,0.19,0.52,0.52v4.45
			c0,0.33-0.2,0.52-0.52,0.52h-6.15c1.47,2.65,3.86,4.48,7.2,5.62c0.23,0.1,0.36,0.23,0.36,0.39c0,0.1-0.03,0.19-0.1,0.29
			l-3.01,4.61c-0.17,0.26-0.43,0.33-0.69,0.2c-3.27-1.57-6.61-4.35-8.47-7.98c-1.47,3.24-3.93,5.98-7.88,7.98
			c-0.29,0.16-0.56,0.1-0.72-0.17l-2.98-4.32c-0.46,1.41-1.01,2.81-1.6,4.12c-0.13,0.33-0.39,0.39-0.69,0.23l-4.38-2.32
			c-0.3-0.16-0.36-0.42-0.23-0.72c1.67-3.3,2.88-7.36,3.63-10.47c0.1-0.33,0.33-0.46,0.66-0.29l4.12,2.03
			C565.01,222.22,565.07,222.26,565.11,222.29z M565.27,222.85c-0.33,1.54-0.82,3.63-1.5,5.82c3.34-1.11,5.3-3.17,6.38-5.69h-4.51
			C565.46,222.98,565.37,222.91,565.27,222.85z M579.13,212.94h-1.9c0,1.31-0.03,2.62-0.13,3.89l-0.07,0.66h2.09V212.94z"/>
	</g>
</g>
</svg>
