<?xml version="1.0" encoding="utf-8"?>
<!-- Generator: Adobe Illustrator 27.0.0, SVG Export Plug-In . SVG Version: 6.00 Build 0)  -->
<svg version="1.1" id="レイヤー_1" xmlns="http://www.w3.org/2000/svg" xmlns:xlink="http://www.w3.org/1999/xlink" x="0px"
	 y="0px" viewBox="0 0 600 110" style="enable-background:new 0 0 600 110;" xml:space="preserve">
<style type="text/css">
	.st0{fill:#489425;}
	.st1{fill:#B7B800;}
</style>
<g>
	<path class="st0" d="M108.94,34.19c-0.6-0.94-1.15-2.22-1.67-3.84c-0.51-1.62-0.77-3.33-0.77-5.12c0-3.33,0.75-5.72,2.24-7.17
		c1.49-1.45,3.44-2.18,5.83-2.18h55.84c0.6,0.94,1.15,2.22,1.66,3.84c0.51,1.62,0.77,3.33,0.77,5.12c0,3.33-0.75,5.72-2.24,7.17
		c-1.5,1.45-3.44,2.18-5.83,2.18h-14.22v59.17c-0.94,0.26-2.41,0.51-4.42,0.77c-2.01,0.26-3.99,0.38-5.95,0.38
		c-1.97,0-3.7-0.15-5.19-0.45c-1.5-0.3-2.75-0.83-3.78-1.6c-1.02-0.77-1.79-1.83-2.3-3.2c-0.51-1.36-0.77-3.16-0.77-5.38V34.19
		H108.94z"/>
	<path class="st0" d="M187.45,18.56c1.45-0.85,3.65-1.66,6.6-2.43c2.95-0.77,5.91-1.15,8.9-1.15c4.27,0,8.05,0.62,11.33,1.86
		c3.29,1.24,5.4,3.18,6.34,5.83c1.54,4.44,3.2,9.61,4.99,15.5c1.79,5.89,3.59,11.97,5.38,18.25c1.79,6.28,3.54,12.47,5.25,18.57
		c1.71,6.11,3.2,11.51,4.48,16.2c-1.02,1.2-2.56,2.16-4.61,2.88c-2.05,0.72-4.48,1.09-7.3,1.09c-2.05,0-3.78-0.17-5.19-0.51
		c-1.41-0.34-2.56-0.85-3.46-1.54c-0.9-0.68-1.62-1.58-2.18-2.69c-0.56-1.11-1.05-2.39-1.47-3.84l-2.31-8.84h-23.18
		c-0.68,2.56-1.37,5.21-2.05,7.94c-0.68,2.73-1.37,5.38-2.05,7.94c-1.2,0.43-2.46,0.79-3.78,1.09c-1.32,0.3-2.93,0.45-4.8,0.45
		c-4.35,0-7.58-0.75-9.67-2.24c-2.09-1.49-3.14-3.56-3.14-6.21c0-1.2,0.17-2.39,0.51-3.59c0.34-1.19,0.72-2.6,1.15-4.23
		c0.6-2.3,1.43-5.17,2.5-8.58c1.07-3.41,2.24-7.11,3.52-11.08c1.28-3.97,2.64-8.05,4.1-12.23c1.45-4.18,2.82-8.13,4.1-11.85
		c1.28-3.71,2.45-7.02,3.52-9.93C186.02,22.32,186.86,20.1,187.45,18.56z M202.82,35.08c-1.2,3.59-2.54,7.58-4.03,11.98
		c-1.5,4.4-2.84,8.86-4.03,13.38h15.88c-1.2-4.61-2.41-9.11-3.65-13.51c-1.24-4.4-2.37-8.35-3.39-11.85H202.82z"/>
	<path class="st0" d="M270.71,63.01c-3.76-1.28-7.17-2.58-10.25-3.91c-3.07-1.32-5.72-2.92-7.94-4.8c-2.22-1.88-3.95-4.12-5.19-6.72
		c-1.24-2.6-1.86-5.78-1.86-9.54c0-7.26,2.8-13.07,8.39-17.42c5.59-4.35,13.43-6.53,23.5-6.53c3.67,0,7.09,0.26,10.25,0.77
		c3.16,0.51,5.87,1.3,8.13,2.37c2.26,1.07,4.03,2.43,5.32,4.1c1.28,1.67,1.92,3.61,1.92,5.83c0,2.22-0.52,4.12-1.54,5.7
		c-1.02,1.58-2.26,2.93-3.71,4.03c-1.88-1.19-4.4-2.24-7.56-3.14c-3.16-0.9-6.62-1.34-10.38-1.34c-3.84,0-6.66,0.54-8.45,1.6
		c-1.79,1.07-2.69,2.41-2.69,4.03c0,1.28,0.56,2.33,1.67,3.14c1.11,0.81,2.77,1.56,5,2.24l6.79,2.18c8.03,2.56,14.19,5.83,18.51,9.8
		c4.31,3.97,6.47,9.37,6.47,16.2c0,7.26-2.86,13.13-8.58,17.61c-5.72,4.48-14.13,6.72-25.23,6.72c-3.93,0-7.58-0.32-10.95-0.96
		c-3.37-0.64-6.32-1.58-8.84-2.82c-2.52-1.24-4.48-2.77-5.89-4.61c-1.41-1.83-2.11-3.95-2.11-6.34c0-2.48,0.73-4.59,2.18-6.34
		c1.45-1.75,3.03-3.09,4.74-4.03c2.39,1.88,5.31,3.5,8.77,4.87c3.46,1.37,7.24,2.05,11.34,2.05c4.18,0,7.13-0.64,8.84-1.92
		c1.7-1.28,2.56-2.77,2.56-4.48c0-1.71-0.69-3.01-2.05-3.91c-1.37-0.9-3.29-1.77-5.76-2.62L270.71,63.01z"/>
	<path class="st1" d="M313.1,34.19c-0.6-0.94-1.15-2.22-1.66-3.84c-0.51-1.62-0.77-3.33-0.77-5.12c0-3.33,0.75-5.72,2.24-7.17
		c1.49-1.45,3.44-2.18,5.83-2.18h55.84c0.6,0.94,1.15,2.22,1.67,3.84c0.51,1.62,0.77,3.33,0.77,5.12c0,3.33-0.75,5.72-2.24,7.17
		c-1.49,1.45-3.44,2.18-5.83,2.18h-14.22v59.17c-0.94,0.26-2.41,0.51-4.42,0.77c-2.01,0.26-3.99,0.38-5.96,0.38
		c-1.97,0-3.69-0.15-5.19-0.45s-2.75-0.83-3.78-1.6c-1.03-0.77-1.79-1.83-2.31-3.2c-0.51-1.36-0.77-3.16-0.77-5.38V34.19H313.1z"/>
	<path class="st1" d="M394.17,18.56c1.45-0.85,3.65-1.66,6.6-2.43c2.95-0.77,5.91-1.15,8.9-1.15c4.27,0,8.05,0.62,11.34,1.86
		c3.29,1.24,5.4,3.18,6.34,5.83c1.54,4.44,3.2,9.61,5,15.5c1.79,5.89,3.59,11.97,5.38,18.25c1.79,6.28,3.54,12.47,5.25,18.57
		c1.71,6.11,3.2,11.51,4.48,16.2c-1.03,1.2-2.56,2.16-4.61,2.88c-2.05,0.72-4.48,1.09-7.3,1.09c-2.05,0-3.78-0.17-5.19-0.51
		c-1.41-0.34-2.56-0.85-3.46-1.54c-0.9-0.68-1.62-1.58-2.18-2.69c-0.55-1.11-1.05-2.39-1.47-3.84l-2.3-8.84h-23.18
		c-0.68,2.56-1.37,5.21-2.05,7.94c-0.68,2.73-1.37,5.38-2.05,7.94c-1.2,0.43-2.46,0.79-3.78,1.09c-1.32,0.3-2.93,0.45-4.8,0.45
		c-4.35,0-7.58-0.75-9.67-2.24c-2.09-1.49-3.14-3.56-3.14-6.21c0-1.2,0.17-2.39,0.51-3.59c0.34-1.19,0.72-2.6,1.15-4.23
		c0.6-2.3,1.43-5.17,2.5-8.58c1.07-3.41,2.24-7.11,3.52-11.08c1.28-3.97,2.64-8.05,4.1-12.23c1.45-4.18,2.82-8.13,4.1-11.85
		c1.28-3.71,2.45-7.02,3.52-9.93C392.74,22.32,393.57,20.1,394.17,18.56z M409.54,35.08c-1.2,3.59-2.54,7.58-4.03,11.98
		c-1.49,4.4-2.84,8.86-4.03,13.38h15.88c-1.2-4.61-2.41-9.11-3.65-13.51c-1.24-4.4-2.37-8.35-3.39-11.85H409.54z"/>
	<path class="st1" d="M489.85,31.88c-6.58,0-11.61,2.01-15.11,6.02c-3.5,4.01-5.25,9.69-5.25,17.03c0,7.43,1.94,13.15,5.83,17.16
		c3.89,4.01,9.11,6.02,15.69,6.02c3.5,0,6.47-0.47,8.9-1.41c2.43-0.94,4.76-2.01,6.98-3.2c1.45,1.2,2.58,2.63,3.4,4.29
		c0.81,1.66,1.22,3.61,1.22,5.83c0,3.5-1.94,6.47-5.83,8.9s-9.8,3.65-17.74,3.65c-5.72,0-11.1-0.81-16.14-2.43
		c-5.04-1.62-9.44-4.12-13.19-7.49c-3.76-3.37-6.72-7.64-8.9-12.81c-2.18-5.17-3.27-11.33-3.27-18.51c0-6.66,1.05-12.53,3.14-17.61
		c2.09-5.08,4.95-9.37,8.58-12.87c3.63-3.5,7.88-6.15,12.74-7.94c4.87-1.79,10.07-2.69,15.63-2.69c7.85,0,13.94,1.28,18.25,3.84
		c4.31,2.56,6.47,5.85,6.47,9.86c0,2.22-0.56,4.14-1.67,5.76c-1.11,1.62-2.39,2.9-3.84,3.84c-2.22-1.45-4.59-2.69-7.11-3.71
		C496.11,32.39,493.18,31.88,489.85,31.88z"/>
	<path class="st0" d="M543.39,65.06v28.31c-0.94,0.26-2.43,0.51-4.48,0.77c-2.05,0.26-4.06,0.38-6.02,0.38
		c-1.97,0-3.69-0.15-5.19-0.45s-2.75-0.83-3.78-1.6c-1.02-0.77-1.79-1.83-2.3-3.2c-0.51-1.36-0.77-3.16-0.77-5.38V16.26
		c0.94-0.17,2.43-0.4,4.48-0.7c2.05-0.3,4.01-0.45,5.89-0.45c1.96,0,3.69,0.15,5.19,0.45c1.49,0.3,2.75,0.83,3.78,1.6
		c1.03,0.77,1.79,1.84,2.31,3.2c0.51,1.37,0.77,3.16,0.77,5.38V46.1l26.64-30.61c5.81,0,9.97,1.09,12.49,3.27
		c2.52,2.18,3.78,4.76,3.78,7.75c0,2.22-0.56,4.31-1.66,6.28c-1.11,1.97-2.91,4.18-5.38,6.66l-16.01,16.01
		c2.13,2.39,4.38,4.87,6.72,7.43c2.35,2.56,4.65,5.06,6.92,7.49c2.26,2.43,4.44,4.76,6.53,6.98c2.09,2.22,3.9,4.14,5.44,5.76
		c0,1.88-0.34,3.54-1.03,5c-0.68,1.45-1.6,2.69-2.75,3.71c-1.15,1.03-2.46,1.79-3.91,2.3c-1.45,0.51-2.99,0.77-4.61,0.77
		c-3.5,0-6.36-0.88-8.58-2.62c-2.22-1.75-4.35-3.82-6.4-6.21L543.39,65.06z"/>
	<path class="st0" d="M91.33,49.84L57.98,78.29c0,0-0.01-0.01-0.02-0.01l-1.31,1.11c-1.98-2.22-4.06-4.51-6.23-6.89
		c-2.17-2.37-4.31-4.69-6.41-6.95c-2.1-2.26-4.12-4.41-6.06-6.47c-1.94-2.06-3.62-3.84-5.05-5.34c0-1.74,0.32-3.29,0.95-4.63
		c0.63-1.35,1.48-2.49,2.55-3.44c1.07-0.95,2.28-1.66,3.62-2.14c1.35-0.48,2.77-0.71,4.27-0.71c3.25,0,5.9,0.81,7.96,2.43
		c2.02,1.59,3.96,3.47,5.82,5.64L91.84,22.1c-2.6-4.91-7.76-8.28-13.67-8.28H26.73c-8.5,0-15.46,6.96-15.46,15.46v51.43
		c0,8.5,6.96,15.46,15.46,15.46h51.43c8.5,0,15.46-6.96,15.46-15.46V47.89L91.33,49.84z"/>
</g>
</svg>
